<?xml version="1.0" encoding="UTF-8" standalone="no"?>
<!-- Created with Inkscape (http://www.inkscape.org/) -->

<svg
   xmlns:dc="http://purl.org/dc/elements/1.1/"
   xmlns:cc="http://creativecommons.org/ns#"
   xmlns:rdf="http://www.w3.org/1999/02/22-rdf-syntax-ns#"
   xmlns:svg="http://www.w3.org/2000/svg"
   xmlns="http://www.w3.org/2000/svg"
   xmlns:sodipodi="http://sodipodi.sourceforge.net/DTD/sodipodi-0.dtd"
   xmlns:inkscape="http://www.inkscape.org/namespaces/inkscape"
   width="210mm"
   height="297mm"
   viewBox="0 0 210 297"
   version="1.1"
   id="svg8"
   inkscape:version="0.92.4 (5da689c313, 2019-01-14)"
   sodipodi:docname="adresse-icone.svg">
  <defs
     id="defs2" />
  <sodipodi:namedview
     id="base"
     pagecolor="#ffffff"
     bordercolor="#666666"
     borderopacity="1.0"
     inkscape:pageopacity="0.0"
     inkscape:pageshadow="2"
     inkscape:zoom="0.35"
     inkscape:cx="-75.714286"
     inkscape:cy="445.71429"
     inkscape:document-units="mm"
     inkscape:current-layer="g52"
     showgrid="false"
     inkscape:window-width="1600"
     inkscape:window-height="837"
     inkscape:window-x="-8"
     inkscape:window-y="-8"
     inkscape:window-maximized="1" />
  <metadata
     id="metadata5">
    <rdf:RDF>
      <cc:Work
         rdf:about="">
        <dc:format>image/svg+xml</dc:format>
        <dc:type
           rdf:resource="http://purl.org/dc/dcmitype/StillImage" />
        <dc:title></dc:title>
      </cc:Work>
    </rdf:RDF>
  </metadata>
  <g
     inkscape:label="Capa 1"
     inkscape:groupmode="layer"
     id="layer1">
    <g
       id="g52"
       transform="translate(-40.821427,-21.166667)">
      <path
         style="fill:#ff6600;stroke-width:0.17222078"
         d="m 124.07389,238.2687 c 0.34901,-0.0617 -0.98162,-0.16362 -3.04967,-0.23348 -4.00148,-0.13517 -11.32223,-0.61731 -15.79051,-1.03997 -27.759783,-2.62583 -49.139063,-8.9809 -55.562923,-16.51628 -0.94438,-1.10779 -2.01866,-3.00695 -2.01891,-3.56916 -8e-5,-0.16682 -0.0689,-0.26303 -0.15293,-0.21381 -0.22376,0.13107 -0.35963,-1.37326 -0.20316,-2.24932 0.0741,-0.41496 0.14732,-0.67903 0.16268,-0.58682 0.0153,0.0922 0.16911,-0.21952 0.34169,-0.69275 1.59153,-4.36429 7.8793,-8.54317 18.10379,-12.0319 6.60614,-2.25409 16.58529,-4.5407 25.63202,-5.87327 4.04644,-0.59603 4.17012,-0.52301 0.43,0.25387 -8.1818,1.6995 -15.38268,3.97123 -19.7247,6.22274 -3.62694,1.88073 -6.23157,4.02272 -7.35664,6.04995 -1.19801,2.15865 -1.02947,4.51424 0.47239,6.60249 4.54406,6.31828 21.17788,11.67772 43.326303,13.9598 9.44482,0.97315 16.15888,1.24729 27.85961,1.13752 9.85288,-0.0924 13.79568,-0.2855 21.40632,-1.04819 25.15249,-2.52062 42.55339,-8.60189 45.2374,-15.80958 0.56347,-1.51316 0.39795,-3.28865 -0.44883,-4.81441 -2.74297,-4.94236 -12.57196,-9.37226 -27.50293,-12.39549 -3.76828,-0.76301 -2.74809,-0.73118 2.27721,0.071 8.55794,1.36616 16.11763,3.07423 22.28727,5.03569 4.27212,1.3582 6.56713,2.26095 10.07254,3.96207 5.35386,2.59815 8.82303,5.62825 9.93506,8.67767 0.17258,0.47323 0.32634,0.78497 0.34169,0.69275 0.0154,-0.0922 0.0886,0.17186 0.16268,0.58682 0.15647,0.87606 0.0206,2.38039 -0.20316,2.24932 -0.084,-0.0492 -0.15285,0.047 -0.15293,0.21381 -7e-5,0.16682 -0.2434,0.79066 -0.54072,1.38631 -4.91295,9.84268 -32.97466,17.72393 -69.86659,19.62235 -1.79999,0.0926 -4.02897,0.17839 -4.95329,0.19058 -1.20937,0.016 -1.50697,0.0568 -1.06141,0.14569 0.34053,0.0679 -4.03782,0.12352 -9.72968,0.12352 -5.69186,0 -10.0702,-0.0493 -9.72967,-0.10956 z m 7.24045,-33.67218 c -15.86952,-26.51189 -29.66653,-50.26017 -34.262763,-58.97524 -3.03143,-5.748 -5.90225,-13.79158 -7.06112,-19.78416 -0.27043,-1.39842 -0.3239,-2.55296 -0.32223,-6.95799 0.002,-5.23134 0.10384,-6.59081 0.72227,-9.64058 2.53012,-12.477187 11.749293,-23.740287 24.290153,-29.675367 4.51063,-2.1347 9.88215,-3.6717 14.13719,-4.04521 0.79982,-0.0702 1.20535,-0.1671 1.06142,-0.2536 -0.12848,-0.0772 1.47249,-0.13585 3.5705,-0.13076 2.28642,0.005 3.6623,0.0667 3.44961,0.15331 -0.27626,0.11251 -0.19388,0.14667 0.37586,0.15587 2.39291,0.0387 7.67168,1.25636 11.35578,2.61956 7.04252,2.6059 14.06749,7.5083 18.84704,13.15249 5.21339,6.15653 8.55468,13.674627 9.49435,21.362857 0.11176,0.91439 0.21597,3.78142 0.23159,6.37117 0.0258,4.27316 -0.01,4.91022 -0.3851,6.88825 -1.17844,6.21188 -3.82692,13.58137 -7.20155,20.03865 -3.95582,7.56933 -13.22522,23.64132 -26.88031,46.60714 -7.73,13.00071 -9.19368,15.42308 -9.3197,15.42403 -0.0665,5e-4 -1.01283,-1.48919 -2.10299,-3.31042 z m 4.4398,-68.79034 c 2.16648,-0.25222 3.90612,-0.74244 5.94674,-1.67576 5.23816,-2.39577 8.88992,-6.66261 10.45931,-12.22099 0.40215,-1.42434 0.4532,-1.92626 0.4532,-4.45543 0,-2.53592 -0.0505,-3.02905 -0.4575,-4.47147 -0.95504,-3.38427 -2.6456,-6.20731 -5.16757,-8.62923 -5.65084,-5.426677 -14.33862,-6.867927 -21.62405,-3.58729 -4.68828,2.11113 -8.36794,6.05698 -10.0692,10.79762 -0.65438,1.82344 -0.95085,3.66005 -0.95085,5.89037 0,5.03846 1.74103,9.17671 5.38871,12.80841 4.23723,4.21867 10.06921,6.2367 16.02121,5.54377 z m -40.382783,58.91297 c 0.12162,-0.0465 0.32064,-0.0465 0.44226,0 0.12162,0.0465 0.0221,0.0846 -0.22113,0.0846 -0.24324,0 -0.34275,-0.038 -0.22113,-0.0846 z m 76.610123,-0.003 c 0.1277,-0.0484 0.28027,-0.0425 0.33906,0.0132 0.0588,0.0557 -0.0457,0.0953 -0.23218,0.0881 -0.20608,-0.008 -0.248,-0.0478 -0.10688,-0.1013 z"
         id="path54"
         inkscape:connector-curvature="0" />
    </g>
  </g>
</svg>
