<?xml version="1.0" encoding="UTF-8" standalone="no"?>
<!-- Created with Inkscape (http://www.inkscape.org/) -->

<svg
   xmlns:dc="http://purl.org/dc/elements/1.1/"
   xmlns:cc="http://creativecommons.org/ns#"
   xmlns:rdf="http://www.w3.org/1999/02/22-rdf-syntax-ns#"
   xmlns:svg="http://www.w3.org/2000/svg"
   xmlns="http://www.w3.org/2000/svg"
   xmlns:sodipodi="http://sodipodi.sourceforge.net/DTD/sodipodi-0.dtd"
   xmlns:inkscape="http://www.inkscape.org/namespaces/inkscape"
   width="210mm"
   height="297mm"
   viewBox="0 0 210 297"
   version="1.1"
   id="svg8"
   inkscape:version="0.92.4 (5da689c313, 2019-01-14)"
   sodipodi:docname="calendario.svg">
  <defs
     id="defs2" />
  <sodipodi:namedview
     id="base"
     pagecolor="#ffffff"
     bordercolor="#666666"
     borderopacity="1.0"
     inkscape:pageopacity="0.0"
     inkscape:pageshadow="2"
     inkscape:zoom="0.35"
     inkscape:cx="-37.142857"
     inkscape:cy="560"
     inkscape:document-units="mm"
     inkscape:current-layer="g5031"
     showgrid="false"
     inkscape:window-width="1600"
     inkscape:window-height="837"
     inkscape:window-x="-8"
     inkscape:window-y="-8"
     inkscape:window-maximized="1" />
  <metadata
     id="metadata5">
    <rdf:RDF>
      <cc:Work
         rdf:about="">
        <dc:format>image/svg+xml</dc:format>
        <dc:type
           rdf:resource="http://purl.org/dc/dcmitype/StillImage" />
        <dc:title></dc:title>
      </cc:Work>
    </rdf:RDF>
  </metadata>
  <g
     inkscape:label="Capa 1"
     inkscape:groupmode="layer"
     id="layer1">
    <path
       style="fill:#000000;stroke-width:2.85714293"
       d=""
       id="path4574"
       inkscape:connector-curvature="0"
       transform="scale(0.26458333)" />
    <path
       style="fill:#000000;stroke-width:2.85714293"
       d=""
       id="path4584"
       inkscape:connector-curvature="0"
       transform="scale(0.26458333)" />
    <path
       style="fill:#000000;stroke-width:2.85714293"
       d=""
       id="path4586"
       inkscape:connector-curvature="0"
       transform="scale(0.26458333)" />
    <path
       style="fill:#000000;stroke-width:2.85714293"
       d=""
       id="path4588"
       inkscape:connector-curvature="0"
       transform="scale(0.26458333)" />
    <path
       style="fill:#000000;stroke-width:2.85714293"
       d=""
       id="path4590"
       inkscape:connector-curvature="0"
       transform="scale(0.26458333)" />
    <path
       style="fill:#aa4400;stroke-width:2.85714293"
       d=""
       id="path4649"
       inkscape:connector-curvature="0"
       transform="scale(0.26458333)" />
    <path
       style="fill:#aa4400;stroke-width:2.85714293"
       d=""
       id="path4651"
       inkscape:connector-curvature="0"
       transform="scale(0.26458333)" />
    <path
       style="fill:#aa4400;stroke-width:2.85714293"
       d=""
       id="path4653"
       inkscape:connector-curvature="0"
       transform="scale(0.26458333)" />
    <path
       style="fill:#aa4400;stroke-width:2.85714293"
       d=""
       id="path4655"
       inkscape:connector-curvature="0"
       transform="scale(0.26458333)" />
    <path
       style="fill:#aa4400;stroke-width:2.85714293"
       d=""
       id="path4657"
       inkscape:connector-curvature="0"
       transform="scale(0.26458333)" />
    <path
       style="fill:#aa4400;stroke-width:2.85714293"
       d=""
       id="path4665"
       inkscape:connector-curvature="0"
       transform="scale(0.26458333)" />
    <path
       style="fill:#aa4400;stroke-width:2.85714293"
       d=""
       id="path4667"
       inkscape:connector-curvature="0"
       transform="scale(0.26458333)" />
    <path
       style="fill:#aa4400;stroke-width:2.85714293"
       d=""
       id="path4683"
       inkscape:connector-curvature="0"
       transform="scale(0.26458333)" />
    <path
       style="fill:#aa4400;stroke-width:2.85714293"
       d=""
       id="path4687"
       inkscape:connector-curvature="0"
       transform="scale(0.26458333)" />
    <path
       style="fill:#aa4400;stroke-width:2.85714293"
       d=""
       id="path4689"
       inkscape:connector-curvature="0"
       transform="scale(0.26458333)" />
    <path
       style="fill:#aa4400;stroke-width:2.85714293"
       d=""
       id="path4701"
       inkscape:connector-curvature="0"
       transform="scale(0.26458333)" />
    <path
       style="fill:#aa4400;stroke-width:2.85714293"
       d=""
       id="path4703"
       inkscape:connector-curvature="0"
       transform="scale(0.26458333)" />
    <path
       style="fill:#aa4400;stroke-width:2.85714293"
       d=""
       id="path4705"
       inkscape:connector-curvature="0"
       transform="scale(0.26458333)" />
    <path
       style="fill:#aa4400;stroke-width:2.85714293"
       d=""
       id="path4707"
       inkscape:connector-curvature="0"
       transform="scale(0.26458333)" />
    <path
       style="fill:#aa4400;stroke-width:2.85714293"
       d=""
       id="path4709"
       inkscape:connector-curvature="0"
       transform="scale(0.26458333)" />
    <path
       style="fill:#aa4400;stroke-width:2.85714293"
       d=""
       id="path4711"
       inkscape:connector-curvature="0"
       transform="scale(0.26458333)" />
    <path
       style="fill:#aa4400;stroke-width:2.85714293"
       d=""
       id="path4713"
       inkscape:connector-curvature="0"
       transform="scale(0.26458333)" />
    <path
       style="fill:#aa4400;stroke-width:2.85714293"
       d=""
       id="path4719"
       inkscape:connector-curvature="0"
       transform="scale(0.26458333)" />
    <path
       style="fill:#aa4400;stroke-width:2.85714293"
       d=""
       id="path4725"
       inkscape:connector-curvature="0"
       transform="scale(0.26458333)" />
    <path
       style="fill:#aa4400;stroke-width:2.85714293"
       d=""
       id="path4727"
       inkscape:connector-curvature="0"
       transform="scale(0.26458333)" />
    <path
       style="fill:#aa4400;stroke-width:2.85714293"
       d=""
       id="path4729"
       inkscape:connector-curvature="0"
       transform="scale(0.26458333)" />
    <path
       style="fill:#aa4400;stroke-width:2.85714293"
       d=""
       id="path4731"
       inkscape:connector-curvature="0"
       transform="scale(0.26458333)" />
    <path
       style="fill:#aa4400;stroke-width:2.85714293"
       d=""
       id="path4733"
       inkscape:connector-curvature="0"
       transform="scale(0.26458333)" />
    <path
       style="fill:#aa4400;stroke-width:2.85714293"
       d=""
       id="path4735"
       inkscape:connector-curvature="0"
       transform="scale(0.26458333)" />
    <path
       style="fill:#ff6600;stroke-width:2.85714293"
       d=""
       id="path4896"
       inkscape:connector-curvature="0"
       transform="scale(0.26458333)" />
    <path
       style="fill:#ffffff;stroke-width:2.85714293"
       d=""
       id="path4941"
       inkscape:connector-curvature="0"
       transform="scale(0.26458333)" />
    <path
       style="fill:#ffffff;stroke-width:2.85714293"
       d=""
       id="path4943"
       inkscape:connector-curvature="0"
       transform="scale(0.26458333)" />
    <path
       style="fill:#ffffff;stroke-width:2.85714293"
       d=""
       id="path4945"
       inkscape:connector-curvature="0"
       transform="scale(0.26458333)" />
    <path
       style="fill:#ffffff;stroke-width:2.85714293"
       d=""
       id="path4947"
       inkscape:connector-curvature="0"
       transform="scale(0.26458333)" />
    <path
       style="fill:#ffffff;stroke-width:2.85714293"
       d=""
       id="path4949"
       inkscape:connector-curvature="0"
       transform="scale(0.26458333)" />
    <path
       style="fill:#ffffff;stroke-width:2.85714293"
       d=""
       id="path4951"
       inkscape:connector-curvature="0"
       transform="scale(0.26458333)" />
    <path
       style="fill:#ffffff;stroke-width:2.85714293"
       d=""
       id="path4957"
       inkscape:connector-curvature="0"
       transform="scale(0.26458333)" />
    <path
       style="fill:#ffffff;stroke-width:2.85714293"
       d=""
       id="path4959"
       inkscape:connector-curvature="0"
       transform="scale(0.26458333)" />
    <path
       style="fill:#ffffff;stroke-width:0.75595242"
       d="m -121.82553,249.83633 c 0,-0.19019 2.72785,-3.44366 6.0619,-7.22993 8.48968,-9.64123 8.7024,-10.00799 7.16515,-12.35414 -0.68223,-1.04121 -2.46142,-2.93606 -3.95375,-4.21079 -2.27031,-1.93925 -3.35317,-2.31766 -6.6321,-2.31766 -4.59358,0 -5.44963,-0.71943 -8.32229,-6.99416 -1.2982,-2.83565 -1.89141,-5.28234 -1.73621,-7.16104 0.2253,-2.72724 0.36714,-2.86447 3.19983,-3.09606 4.12152,-0.33695 8.68388,1.6013 12.16806,5.16942 2.70987,2.77516 2.994,3.46636 3.44428,8.37886 0.42771,4.66623 0.79646,5.65988 2.86997,7.73338 1.93176,1.93177 2.62676,2.2252 3.69557,1.56031 2.17977,-1.35599 4.48098,-5.31588 5.009332,-8.62001 0.338992,-2.11995 1.40761,-4.08763 3.351953,-6.17207 l 2.854312,-3.05997 2.209062,2.91787 c 1.214985,1.60483 2.811965,3.57443 3.548848,4.37689 1.240308,1.35068 1.248333,1.56007 0.10808,2.82003 -0.67744,0.74857 -2.460676,1.55736 -3.962744,1.79734 -5.247765,0.83839 -6.023899,1.11414 -6.266482,2.22641 -0.364651,1.67194 -22.485821,24.58113 -23.735611,24.58113 -0.59244,0 -1.07716,-0.15561 -1.07716,-0.34581 z"
       id="path4969"
       inkscape:connector-curvature="0" />
    <path
       style="fill:#ffffff;stroke-width:2.85714293"
       d=""
       id="path4973"
       inkscape:connector-curvature="0"
       transform="scale(0.26458333)" />
    <path
       style="fill:#ffffff;stroke-width:2.85714293"
       d=""
       id="path4975"
       inkscape:connector-curvature="0"
       transform="scale(0.26458333)" />
    <path
       style="fill:#ffffff;stroke-width:2.85714293"
       d=""
       id="path4989"
       inkscape:connector-curvature="0"
       transform="scale(0.26458333)" />
    <path
       style="fill:#ffffff;stroke-width:2.85714293"
       d=""
       id="path4991"
       inkscape:connector-curvature="0"
       transform="scale(0.26458333)" />
    <path
       style="fill:#ffffff;stroke-width:2.85714293"
       d=""
       id="path4993"
       inkscape:connector-curvature="0"
       transform="scale(0.26458333)" />
    <path
       style="fill:#ffffff;stroke-width:2.85714293"
       d=""
       id="path4995"
       inkscape:connector-curvature="0"
       transform="scale(0.26458333)" />
    <path
       style="fill:#ffffff;stroke-width:2.85714293"
       d=""
       id="path4997"
       inkscape:connector-curvature="0"
       transform="scale(0.26458333)" />
    <path
       style="fill:#ffffff;stroke-width:2.85714293"
       d=""
       id="path5001"
       inkscape:connector-curvature="0"
       transform="scale(0.26458333)" />
    <g
       id="g5031"
       inkscape:transform-center-x="-81.642857"
       inkscape:transform-center-y="5.2916667"
       transform="translate(-265.33929,86.934522)">
      <path
         style="fill:#201d1e;stroke-width:0.0508"
         d="m 343.65118,73.454093 c -1.53843,-0.333558 -2.79829,-1.217316 -3.5809,-2.511898 -0.41831,-0.691972 -0.64365,-1.386799 -0.74127,-2.285771 -0.0354,-0.325857 -0.0477,-7.272117 -0.0381,-21.386801 l 0.0143,-20.9042 0.14897,-0.426781 c 0.36438,-1.043927 1.14553,-1.808595 2.18783,-2.141668 0.31745,-0.101444 0.49052,-0.11616 1.61336,-0.13718 1.23481,-0.02312 1.25817,-0.02553 1.28045,-0.132157 0.0125,-0.05974 0.0325,-0.394364 0.0445,-0.743614 0.0373,-1.085792 0.26826,-1.655917 0.94777,-2.339511 0.6773,-0.681371 1.34661,-0.96319 2.28409,-0.961738 0.8475,0.0013 1.47572,0.219874 2.08864,0.726652 0.1837,0.151893 0.4156,0.38755 0.51532,0.523683 0.3254,0.444202 0.66936,1.217724 0.49303,1.108742 -0.0382,-0.02361 -0.13147,-0.0382 -0.20727,-0.03242 -0.0758,0.0058 -0.1521,-0.01261 -0.16955,-0.04085 -0.0518,-0.08386 -0.17069,-0.05861 -0.22797,0.04843 -0.0806,0.150671 0.0427,0.502567 0.20592,0.587503 0.0719,0.03741 0.1627,0.106568 0.20181,0.153691 0.0538,0.06483 0.0282,0.05951 -0.1053,-0.02186 -0.22837,-0.139221 -0.44903,-0.136591 -0.66345,0.0079 -0.2764,0.186261 -0.36698,0.464319 -0.25081,0.769868 0.0272,0.07167 0.0444,0.130212 0.0381,0.130094 -0.006,-1.01e-4 -0.12391,-0.05727 -0.26136,-0.127 -0.30956,-0.157051 -0.34131,-0.157065 -0.5277,-2.03e-4 l -0.1504,0.126559 -0.0203,-0.505627 c -0.0186,-0.462096 -0.0333,-0.523992 -0.171,-0.718935 -0.18824,-0.266485 -0.47524,-0.419695 -0.78619,-0.419695 -0.28397,0 -0.5126,0.122773 -0.7307,0.392388 -0.15717,0.194289 -0.15779,0.197456 -0.15779,0.8128 v 0.617751 l 0.77266,0.0254 c 0.69651,0.0229 0.78021,0.03541 0.84928,0.127 0.1096,0.145316 0.10225,0.154709 -0.12116,0.154709 -0.24724,0 -0.45116,0.139795 -0.57892,0.396879 -0.12019,0.241856 -0.082,0.464813 0.12405,0.724091 0.14469,0.182059 0.14868,0.198308 0.0639,0.260258 -0.0787,0.05752 -0.11321,0.04322 -0.26693,-0.110502 -0.16403,-0.164028 -0.17174,-0.185629 -0.1084,-0.303974 0.0901,-0.168409 -0.008,-0.302881 -0.19505,-0.267135 -0.0699,0.01336 -0.1773,-0.0086 -0.23867,-0.04881 -0.0982,-0.06437 -0.12136,-0.06331 -0.19349,0.0088 -0.0984,0.09841 -0.0984,0.09827 -0.0108,0.354065 0.043,0.125681 0.12016,0.228433 0.20216,0.269342 0.0729,0.03638 0.20411,0.15514 0.29152,0.263914 0.20532,0.255489 0.38335,0.320339 0.59629,0.217206 0.0878,-0.04254 0.15972,-0.09736 0.15972,-0.121807 0,-0.08114 0.10945,-0.04602 0.19821,0.0636 0.0617,0.07619 0.11889,0.09809 0.19395,0.07427 0.16224,-0.0515 0.18497,-0.183369 0.0606,-0.351599 -0.10548,-0.142665 -0.10628,-0.151775 -0.0177,-0.201338 0.18017,-0.10083 0.32875,-0.30848 0.35984,-0.50291 0.029,-0.181143 0.0383,-0.190575 0.11759,-0.118818 0.1034,0.09357 0.21367,0.09988 0.29657,0.01699 0.10223,-0.102229 0.0705,-0.191009 -0.16764,-0.469815 -0.22621,-0.264787 -0.27739,-0.398272 -0.17659,-0.460574 0.0286,-0.01768 0.23328,0.07241 0.45484,0.200202 0.22155,0.127791 0.4232,0.232347 0.44811,0.232347 0.0802,0 0.22663,-0.197163 0.19932,-0.268339 -0.0181,-0.04715 0.0444,-0.08787 0.19779,-0.128898 0.30813,-0.08241 0.43892,-0.290991 0.41188,-0.656863 -0.0108,-0.146685 -0.005,-0.2667 0.0137,-0.2667 0.0184,0 0.0819,0.05159 0.14114,0.114653 0.0823,0.08758 0.11136,0.192549 0.12315,0.4445 l 0.0154,0.329822 h 1.9558 1.9558 l 0.0327,-0.762 c 0.0361,-0.842669 0.0986,-1.112322 0.38846,-1.6764 0.26154,-0.508996 0.88579,-1.122217 1.38856,-1.364039 0.58952,-0.283548 0.93497,-0.353279 1.61801,-0.326611 0.45551,0.01779 0.66645,0.0515 0.95006,0.15186 0.72022,0.254859 1.40033,0.827195 1.76819,1.48799 0.28772,0.516843 0.38725,0.927642 0.42466,1.7526 l 0.0334,0.7366 h 1.9558 1.9558 l 0.0299,-0.7366 c 0.0472,-1.163379 0.28246,-1.763012 0.9585,-2.442718 0.66545,-0.66907 1.37502,-0.960882 2.33648,-0.960882 0.92438,0 1.61543,0.286602 2.26315,0.938602 0.69528,0.699861 0.93245,1.294172 0.98374,2.464998 l 0.0323,0.7366 h 1.9558 1.9558 l 0.0317,-0.7112 c 0.0375,-0.840794 0.0901,-1.081445 0.35704,-1.632239 0.84328,-1.740333 3.06747,-2.346014 4.70331,-1.280783 0.61766,0.402209 1.13536,1.095294 1.36007,1.820822 0.0555,0.179236 0.0982,0.552575 0.11919,1.0414 l 0.0327,0.762 1.2446,0.03114 c 1.56227,0.03909 1.90743,0.121598 2.61209,0.624428 0.3296,0.235201 0.4344,0.337224 0.45897,0.446808 0.0845,0.377086 0.10246,0.410048 0.28606,0.52595 0.19646,0.124018 0.47803,0.531437 0.442,0.639541 -0.0109,0.03265 -0.16455,-0.115653 -0.34148,-0.329554 -0.17694,-0.213902 -0.36081,-0.388912 -0.40859,-0.388912 -0.0964,0 -0.25504,0.152611 -0.25504,0.2453 0,0.03272 -0.036,0.0595 -0.0801,0.0595 -0.0441,0 -0.14936,0.06924 -0.23398,0.15387 -0.13301,0.133012 -0.14932,0.178159 -0.12026,0.333034 l 0.0336,0.179163 -0.1757,-0.03296 c -0.20393,-0.03826 -0.51474,0.08618 -0.59641,0.238782 -0.0486,0.09072 -0.0646,0.08563 -0.26162,-0.08302 -0.11544,-0.09882 -0.29141,-0.20231 -0.39102,-0.229982 -0.11037,-0.03066 -1.38427,-0.05043 -3.261,-0.0506 -2.64172,-2.54e-4 -3.08866,0.01029 -3.14158,0.07406 -0.0997,0.120182 -0.0486,1.072946 0.0705,1.314493 0.13392,0.271469 0.40484,0.436032 0.81304,0.49384 0.40188,0.05691 0.61515,0.142902 0.80402,0.324183 0.48578,0.466241 0.46514,1.342842 -0.0407,1.728664 -0.32159,0.24529 -0.51311,0.29638 -0.99527,0.265502 -1.34775,-0.08631 -2.49983,-1.024407 -2.91337,-2.372223 -0.0551,-0.179646 -0.0956,-0.542388 -0.11343,-1.016 -0.0171,-0.455774 -0.0493,-0.750829 -0.0843,-0.773922 -0.0311,-0.02053 -1.84085,-0.03767 -4.02157,-0.0381 -3.01699,-5.89e-4 -3.97951,0.0138 -4.0259,0.06018 -0.0394,0.03936 -0.061,0.242577 -0.061,0.573436 0,0.430552 0.0183,0.548645 0.1143,0.73873 0.13077,0.258866 0.37264,0.440557 0.64068,0.481282 0.56014,0.08511 0.71229,0.137373 0.9217,0.316619 0.27752,0.237546 0.40358,0.515082 0.405,0.891697 0.002,0.668516 -0.49727,1.151145 -1.19268,1.151678 -1.34744,0.001 -2.63097,-0.945971 -3.05488,-2.253917 -0.10932,-0.337321 -0.13768,-0.538701 -0.15802,-1.122285 -0.0136,-0.39116 -0.0478,-0.739775 -0.0759,-0.7747 -0.0729,-0.0906 -7.96432,-0.09309 -8.05487,-0.0025 -0.0392,0.03915 -0.061,0.239687 -0.061,0.560432 0,0.873444 0.21459,1.15913 0.94877,1.263103 0.7203,0.102008 1.13558,0.532559 1.13291,1.174574 -0.001,0.340873 -0.13035,0.624374 -0.3907,0.8591 -0.28351,0.2556 -0.50546,0.318226 -1.00148,0.282585 -0.80418,-0.05778 -1.48664,-0.373929 -2.06023,-0.954383 -0.38994,-0.394605 -0.61965,-0.761017 -0.79839,-1.273557 -0.10896,-0.312441 -0.13394,-0.491567 -0.15468,-1.109214 -0.0136,-0.40513 -0.0477,-0.765175 -0.0759,-0.8001 -0.0401,-0.04973 -0.83699,-0.0635 -3.67459,-0.0635 h -3.62344 l -0.36361,-0.4318 c -0.19999,-0.23749 -0.3919,-0.4318 -0.42647,-0.4318 -0.0766,0 -0.23101,0.163507 -0.23101,0.244618 0,0.03235 -0.0782,0.09148 -0.17371,0.1314 -0.2095,0.08754 -0.30392,0.245697 -0.26447,0.442988 0.0291,0.145695 0.0284,0.146194 -0.22857,0.146194 -0.22496,0 -0.2796,0.02179 -0.42885,0.171039 -0.11601,0.116015 -0.1819,0.239 -0.20482,0.382297 -0.0284,0.177443 -0.0491,0.206379 -0.12982,0.180776 -0.14813,-0.04702 -0.38531,0.02331 -0.55217,0.163708 l -0.15119,0.127212 v -0.502389 c 0,-0.322988 -0.0218,-0.524122 -0.061,-0.563316 -0.08,-0.08002 -1.91283,-0.0836 -2.19849,-0.0043 -0.25895,0.07189 -0.55839,0.371331 -0.63029,0.630284 -0.0668,0.240711 -0.0795,7.326375 -0.0133,7.430749 0.0342,0.05383 4.05335,0.06559 21.95255,0.06425 12.05091,-9.04e-4 21.92441,-0.01531 21.94112,-0.032 0.0167,-0.0167 0.0366,-1.41679 0.0443,-3.111319 0.0133,-2.949761 0.0181,-3.089796 0.1143,-3.288429 0.0552,-0.114107 0.10044,-0.255963 0.10044,-0.315235 0,-0.09384 0.022,-0.104204 0.16993,-0.08019 0.18581,0.03015 0.40619,-0.05984 0.55839,-0.228021 0.13145,-0.145249 0.16535,-0.471774 0.069,-0.664855 -0.0719,-0.144211 -0.0714,-0.157146 0.007,-0.157782 0.0468,-4.07e-4 0.14216,-0.01295 0.21201,-0.02794 l 0.127,-0.02725 -0.1143,0.08494 c -0.21332,0.158513 -0.0957,0.412873 0.16104,0.348423 0.14928,-0.03747 0.33426,-0.245291 0.33426,-0.375532 0,-0.06578 0.0343,-0.08092 0.14612,-0.0645 0.10847,0.01592 0.16637,-0.0074 0.22465,-0.09066 0.20476,-0.292334 0.20989,-0.115898 0.22665,7.798617 0.009,4.13512 0.004,7.564958 -0.01,7.621862 -0.0247,0.09997 -0.27519,0.226738 -0.44811,0.226738 -0.16723,0 -0.24132,0.147365 -0.24132,0.480009 0,0.391967 0.0554,0.451029 0.4004,0.426693 l 0.25094,-0.0177 0.0294,0.1778 c 0.0542,0.328023 0.0315,15.402656 -0.0236,15.641442 -0.0362,0.156829 -0.0344,0.306415 0.006,0.50073 0.0661,0.318648 0.0144,0.425552 -0.12909,0.266934 -0.0812,-0.08971 -0.0847,-0.1197 -0.0267,-0.228067 0.0887,-0.165694 -0.011,-0.299959 -0.19646,-0.264515 -0.0699,0.01336 -0.1773,-0.0086 -0.23866,-0.04881 -0.0982,-0.06436 -0.12137,-0.06331 -0.1935,0.0088 -0.0984,0.09844 -0.0984,0.09835 -0.0106,0.354066 0.0384,0.11176 0.12172,0.229997 0.18518,0.262742 0.0635,0.03275 0.23778,0.190033 0.3874,0.34952 l 0.27203,0.289971 -0.017,4.451086 c -0.0165,4.328658 -0.02,4.463161 -0.12442,4.890348 -0.23848,0.975203 -0.69486,1.832468 -1.33201,2.502043 -0.64432,0.677113 -1.25327,1.077015 -2.13514,1.402171 -0.84324,0.310911 -0.70775,0.304719 -6.66563,0.304719 -5.15776,0 -5.43341,-0.0045 -5.39595,-0.0889 0.084,-0.189149 0.0844,-0.521112 8.2e-4,-0.648691 -0.0801,-0.122281 -0.0789,-0.126009 0.0414,-0.126009 0.0682,0 0.16018,-0.01387 0.20437,-0.03084 0.0442,-0.01696 0.0804,-0.0082 0.0804,0.01948 0,0.02767 -0.0457,0.06226 -0.1016,0.07688 -0.13464,0.03521 -0.13174,0.219577 0.005,0.292552 0.0794,0.04249 0.144,0.04118 0.25594,-0.0052 0.17703,-0.07332 0.24745,-0.187269 0.24745,-0.40035 0,-0.222824 -0.15624,-0.358937 -0.41202,-0.358937 h -0.20883 l 0.11993,-0.09842 c 0.0974,-0.07995 0.10943,-0.115687 0.064,-0.1905 -0.0897,-0.147742 -0.30365,-0.143525 -0.45618,0.009 -0.1091,0.109098 -0.12954,0.169763 -0.11359,0.337068 l 0.0195,0.204023 -0.16411,-0.03078 c -0.4878,-0.09151 -0.92511,0.532755 -0.64918,0.926709 0.0764,0.109144 0.074,0.112903 -0.0731,0.112903 -0.1467,0 -0.15185,-0.0078 -0.14258,-0.2159 0.009,-0.211252 0.006,-0.215966 -0.15591,-0.218872 -0.091,-0.0016 -0.19277,-0.03021 -0.22606,-0.0635 -0.1566,-0.156601 -0.34879,0.05866 -0.24864,0.278486 0.0308,0.06764 0.056,0.144749 0.056,0.171378 0,0.03056 -4.87313,0.04692 -13.2207,0.04437 -11.12482,-0.0034 -13.27265,-0.0153 -13.5484,-0.07509 z m 39.59611,-2.313458 c 0.81314,-0.190378 1.62429,-0.833323 1.99039,-1.577665 0.21256,-0.432161 0.34763,-0.873176 0.294,-0.959952 -0.0488,-0.07902 -0.17089,-0.05558 -0.39574,0.07602 -0.2983,0.174569 -1.0565,0.45977 -1.50765,0.567111 -0.36149,0.086 -1.3644,0.09152 -19.5834,0.10765 -12.85717,0.01139 -19.3975,0 -19.79283,-0.03515 -0.71236,-0.06293 -1.33014,-0.232867 -1.96722,-0.541131 -0.46332,-0.224186 -0.61736,-0.249794 -0.61736,-0.102632 0,0.03984 0.0449,0.217724 0.0998,0.395295 0.26965,0.872689 1.01697,1.650071 1.9103,1.987144 l 0.30135,0.113706 4.826,0.0254 c 9.32212,0.04906 34.16644,0.0088 34.4424,-0.05579 z m -4.6955,-2.94326 c 0.0266,-0.04089 0.0424,-0.188651 0.0351,-0.328351 -0.012,-0.231115 -0.0235,-0.252568 -0.12751,-0.238105 -0.13374,0.01859 -0.16321,-0.125801 -0.031,-0.151872 0.0458,-0.009 -0.0469,-0.06057 -0.20599,-0.114523 -0.24202,-0.08207 -0.3164,-0.08829 -0.4552,-0.0381 -0.0913,0.033 -0.21493,0.06 -0.27483,0.06 -0.0599,0 -0.13257,0.04422 -0.16149,0.09826 -0.071,0.132705 -0.0669,0.679867 0.006,0.752419 0.0908,0.0908 1.15305,0.05607 1.21529,-0.03973 z m -0.8036,-0.0826 c -0.075,-0.03028 -0.0867,-0.372755 -0.0127,-0.372755 0.0279,0 0.0508,-0.02421 0.0508,-0.0538 0,-0.02959 -0.0226,-0.03983 -0.0502,-0.02276 -0.0288,0.0178 -0.0373,-0.0026 -0.02,-0.0478 0.0427,-0.111165 0.33847,-0.101783 0.44331,0.01406 0.10547,0.11654 0.1085,0.332618 0.006,0.43501 -0.0701,0.07009 -0.0958,0.06798 -0.254,-0.0209 -0.0968,-0.05438 -0.17603,-0.07754 -0.17603,-0.05147 0,0.02608 0.04,0.07071 0.0889,0.09919 0.0908,0.05289 0.0384,0.06748 -0.0762,0.02122 z m 5.573,-1.197117 c 1.08577,-0.338257 1.86943,-1.117595 2.16254,-2.150639 0.0649,-0.228645 0.0917,-0.590372 0.11077,-1.495399 0.0226,-1.070849 0.0355,-1.210676 0.12505,-1.357635 0.0549,-0.09011 0.10183,-0.232984 0.10423,-0.3175 0.004,-0.149352 0.0113,-0.153665 0.25139,-0.153665 0.20814,0 0.27515,-0.02599 0.42582,-0.1651 0.21951,-0.202677 0.2766,-0.459791 0.15583,-0.701879 -0.0452,-0.09055 -0.0821,-0.172547 -0.0821,-0.182224 0,-0.0097 0.0972,-0.01615 0.2159,-0.01438 0.18507,0.0027 0.19909,0.01 0.0982,0.05042 -0.0902,0.03616 -0.11395,0.07997 -0.1016,0.18728 0.0321,0.279166 0.44715,0.188265 0.55954,-0.12255 0.0475,-0.131445 0.0826,-0.162738 0.15627,-0.13936 0.0958,0.0304 0.2909,-0.101442 0.2909,-0.19656 0,-0.05063 -0.70351,-0.900054 -0.74544,-0.900054 -0.0829,0 -0.23199,0.127142 -0.27174,0.231688 -0.0277,0.07294 -0.0879,0.123912 -0.14628,0.123912 -0.16508,0 -0.32345,0.249534 -0.29022,0.457306 l 0.0285,0.178207 -0.23263,-0.0185 c -0.17798,-0.01416 -0.26715,0.007 -0.37961,0.09016 l -0.14698,0.108667 v -11.88508 c 0,-10.736896 -0.008,-11.892805 -0.0798,-11.964921 -0.0723,-0.07232 -2.13216,-0.07983 -21.91049,-0.07983 -17.38444,0 -21.84832,0.01293 -21.91735,0.0635 -0.0814,0.05963 -0.0859,0.914459 -0.0732,14.033501 l 0.0135,13.97 0.10804,0.281843 c 0.34256,0.893684 0.76072,1.394491 1.49582,1.791488 0.37522,0.202641 0.61611,0.28607 0.98197,0.340085 0.14244,0.02103 8.93434,0.03493 19.53758,0.03089 17.98659,-0.0068 19.29717,-0.01313 19.5557,-0.09367 z m -36.88926,-4.570274 c -0.10371,-0.02757 -0.29231,-0.141453 -0.4191,-0.253066 -0.2054,-0.180797 -0.23054,-0.226436 -0.23054,-0.418414 0,-0.210754 0.003,-0.21499 0.1531,-0.193014 0.34115,0.05007 0.71074,-0.257008 0.71018,-0.590063 -1.5e-4,-0.102631 -0.0331,-0.249468 -0.0732,-0.326303 -0.0696,-0.133513 -0.0676,-0.1397 0.047,-0.1397 0.0659,0 0.16171,-0.01272 0.21289,-0.02826 0.0717,-0.02176 0.0668,-0.0086 -0.0212,0.057 -0.13085,0.09759 -0.14807,0.235595 -0.0405,0.324836 0.14816,0.122961 0.53584,-0.115784 0.53584,-0.329987 0,-0.09119 0.0228,-0.106741 0.12729,-0.08677 0.13946,0.02666 0.27911,-0.06034 0.27911,-0.173889 0,-0.111587 -0.66564,-0.880531 -0.76223,-0.880531 -0.0953,0 -0.25377,0.153146 -0.25377,0.245298 0,0.03272 -0.036,0.0595 -0.0801,0.0595 -0.0441,0 -0.14935,0.06924 -0.23398,0.153868 -0.13139,0.131389 -0.14912,0.179207 -0.12134,0.327294 l 0.0325,0.173421 -0.17513,-0.02842 c -0.1088,-0.01765 -0.23452,0.0012 -0.33195,0.04982 l -0.15683,0.07823 3.1e-4,-2.828204 c 1.5e-4,-1.678351 0.0204,-2.900496 0.0498,-3.006008 0.0705,-0.253236 0.31581,-0.528553 0.58291,-0.654105 0.22692,-0.106663 0.26872,-0.107895 3.66072,-0.107895 2.76389,0 3.46298,0.01332 3.59466,0.0685 0.24168,0.101278 0.48343,0.323217 0.61019,0.560189 l 0.11206,0.20951 v 3.4798 c 0,3.875354 0.0239,3.60491 -0.35182,3.980627 -0.34276,0.342768 -0.28546,0.337962 -3.96253,0.33212 -1.99545,-0.0032 -3.38039,-0.02512 -3.49421,-0.05539 z m 5.4362,-2.33712 c 0.0449,-0.0449 0.061,-0.494081 0.061,-1.705214 v -1.644249 l 0.17347,-0.163609 c 0.21967,-0.207172 0.28128,-0.478825 0.16426,-0.72422 -0.0768,-0.161028 -0.0764,-0.172193 0.006,-0.172842 0.0484,-4.06e-4 0.14523,-0.01241 0.21508,-0.02673 l 0.127,-0.02603 -0.11682,0.06101 c -0.0841,0.04395 -0.11256,0.0976 -0.1016,0.191827 0.0223,0.191526 0.29469,0.211559 0.47157,0.03468 0.23741,-0.237409 0.11892,-0.604151 -0.2169,-0.671314 -0.11583,-0.02317 -0.13833,-0.05394 -0.13811,-0.188912 2.5e-4,-0.143393 -0.0173,-0.162944 -0.15804,-0.17665 -0.22692,-0.02209 -0.44751,0.239914 -0.40277,0.478384 0.0311,0.165961 0.0309,0.166166 -0.14753,0.137208 -0.32592,-0.05289 -0.62919,0.162226 -0.71593,0.507818 -0.0359,0.142956 -0.0953,0.174725 -0.15281,0.08169 -0.019,-0.03082 -0.0899,-0.04088 -0.16138,-0.02293 -0.0855,0.02146 -0.1596,0.0029 -0.22523,-0.05652 -0.0937,-0.08476 -0.10316,-0.08271 -0.22468,0.04833 l -0.12688,0.136839 h -1.11556 -1.11554 v 1.069324 c 0,0.877581 -0.0145,1.097301 -0.0807,1.225352 -0.091,0.176073 -0.0773,0.529321 0.0306,0.783931 0.0367,0.08669 0.0519,0.196392 0.0337,0.243794 -0.0277,0.0723 -0.059,0.05672 -0.19367,-0.09671 -0.12091,-0.137719 -0.14617,-0.197318 -0.10223,-0.241254 0.0804,-0.08035 0.0731,-0.168474 -0.0218,-0.263322 -0.0559,-0.05588 -0.10559,-0.06591 -0.16419,-0.03312 -0.0574,0.03215 -0.12838,0.02083 -0.22415,-0.03574 -0.19729,-0.116535 -0.2654,-0.03418 -0.22033,0.266396 0.0299,0.199359 0.0639,0.2521 0.23058,0.357301 0.10753,0.06788 0.23107,0.175804 0.27453,0.239832 0.0435,0.06403 0.17688,0.189195 0.29647,0.278146 l 0.21743,0.161726 1.88214,0.0034 c 1.40002,0.0025 1.89776,-0.01224 1.9431,-0.05759 z m -0.0914,-3.887669 c -0.30899,-0.04091 -0.34697,-0.06121 -0.31845,-0.170261 0.0629,-0.240438 0.42072,-0.233862 0.49785,0.0091 0.042,0.132369 -0.0143,0.182968 -0.1794,0.161112 z m -4.9784,3.005445 c 0,-0.144744 -0.12652,-0.21558 -0.24821,-0.138958 -0.11796,0.07428 -0.13293,0.226629 -0.0297,0.302118 0.12349,0.0903 0.27791,-5.08e-4 0.27791,-0.16316 z m 13.29067,3.205399 c -0.26996,-0.09623 -0.53754,-0.323403 -0.6633,-0.563123 -0.10284,-0.196042 -0.1055,-0.275483 -0.12003,-3.578692 -0.008,-1.85801 -0.002,-3.449209 0.0136,-3.535998 0.0507,-0.280705 0.31322,-0.611442 0.59805,-0.753381 l 0.26132,-0.130221 3.43173,0.0011 c 3.21018,10e-4 3.44484,0.0071 3.63492,0.09366 0.26131,0.119008 0.56248,0.453762 0.63134,0.701729 0.0337,0.121299 0.054,0.928565 0.0542,2.152388 l 3.1e-4,1.958294 -0.16871,0.06101 c -0.0928,0.03355 -0.21771,0.06101 -0.27761,0.06101 -0.14894,0 -0.21408,0.144729 -0.21408,0.47563 0,0.361909 0.0826,0.450753 0.40073,0.431129 l 0.23427,-0.01445 0.0139,0.88011 c 0.0132,0.836986 0.008,0.893175 -0.10817,1.146779 -0.13203,0.288402 -0.37149,0.504901 -0.68035,0.615122 -0.28434,0.101473 -6.75699,0.09954 -7.04213,-0.0021 z m 5.44245,-2.304476 c 0.0502,-0.03185 0.0612,-0.459841 0.0508,-1.967723 l -0.0133,-1.927016 -0.56938,-0.0254 c -0.31315,-0.01397 -1.19326,-0.01397 -1.9558,0 l -1.38642,0.0254 -0.0133,1.927016 c -0.0104,1.507882 6.2e-4,1.935877 0.0508,1.967723 0.0353,0.02239 0.89851,0.04071 1.91832,0.04071 1.01981,0 1.88305,-0.01832 1.91832,-0.04071 z m 8.22888,2.307301 c -0.27983,-0.100915 -0.53158,-0.311785 -0.66077,-0.553482 l -0.11383,-0.212958 -0.0149,-3.3782 c -0.0108,-2.450083 0.001,-3.436932 0.0441,-3.591974 0.0759,-0.275009 0.36569,-0.612505 0.62835,-0.731811 0.19353,-0.0879 0.41329,-0.09365 3.61903,-0.0947 2.27429,-7.42e-4 3.46071,0.01678 3.556,0.05252 0.28582,0.107203 0.52109,0.314344 0.64933,0.571678 l 0.12868,0.258231 -5.1e-4,3.380924 c 0,2.20249 -0.0189,3.447811 -0.0536,3.572814 -0.0673,0.242256 -0.30744,0.51812 -0.57634,0.662006 -0.20748,0.111023 -0.21665,0.111338 -3.61161,0.122494 -2.75518,0.0091 -3.43991,-0.0019 -3.5942,-0.05755 z m 5.4738,-4.24624 v -1.9558 h -1.9558 -1.9558 l -0.0133,1.899041 c -0.01,1.368912 0.003,1.918599 0.0448,1.969104 0.0479,0.05772 0.39479,0.06772 1.96912,0.05676 l 1.91098,-0.0133 z m -33.3629,2.993131 c -0.13713,-0.07987 -0.11491,-0.332151 0.0381,-0.432405 0.11764,-0.07708 0.13635,-0.07708 0.254,0 0.16013,0.104927 0.16691,0.301158 0.0141,0.408193 -0.13062,0.09149 -0.18352,0.09567 -0.3062,0.02421 z m 40.02557,-0.08883 c -0.10927,-0.120747 -0.10644,-0.226705 0.009,-0.331028 0.13416,-0.121407 0.29842,-0.103531 0.39438,0.04293 0.0771,0.117647 0.0771,0.136352 0,0.254 -0.0989,0.150992 -0.2833,0.166583 -0.4032,0.0341 z m -39.10079,-1.073232 c 0.0819,-0.08187 0.12956,-0.09851 0.16907,-0.059 0.0689,0.06891 0.0478,0.08998 -0.13615,0.136154 l -0.14695,0.03688 z m 40.09365,-0.05049 c 0.0459,-0.07353 0.0787,-0.085 0.12744,-0.04458 0.10259,0.08515 0.0774,0.143597 -0.0618,0.143597 -0.11361,0 -0.12073,-0.01075 -0.0656,-0.09902 z m -19.09543,-0.444692 c -0.12728,-0.29813 -0.13261,-0.409636 -0.0224,-0.46862 0.0935,-0.05004 0.107,-0.03767 0.13778,0.126401 0.0188,0.100035 0.0141,0.249926 -0.0103,0.33309 l -0.0444,0.151212 z m -21.52645,-9.77107 c -0.27259,-0.135994 -0.41048,-0.274709 -0.53373,-0.53691 -0.10185,-0.216678 -0.10414,-0.29806 -0.10305,-3.663854 0.001,-3.234171 0.007,-3.454708 0.0947,-3.648289 0.13356,-0.294037 0.46995,-0.564697 0.7871,-0.633292 0.17977,-0.03888 1.28759,-0.05131 3.58749,-0.04026 l 3.3274,0.01599 0.23216,0.136488 c 0.27448,0.161364 0.47674,0.435971 0.55427,0.752512 0.0387,0.157979 0.0514,1.256541 0.0412,3.556 -0.0147,3.298213 -0.0158,3.329183 -0.12446,3.530601 -0.0603,0.11176 -0.17461,0.264852 -0.254,0.340205 -0.31985,0.30357 -0.20353,0.294982 -3.96542,0.29277 -3.32026,-0.002 -3.45049,-0.0056 -3.64364,-0.101958 z m 5.63047,-2.313172 c 0.017,-0.0442 0.0308,-0.910076 0.0308,-1.92418 0,-1.497442 -0.0131,-1.854655 -0.0695,-1.90147 -0.0497,-0.04127 -0.60906,-0.05386 -1.9685,-0.04432 l -1.89904,0.01332 -0.0133,1.90482 c -0.007,1.047651 -0.002,1.933476 0.0111,1.9685 0.019,0.04949 0.4537,0.06368 1.95099,0.06368 1.70991,0 1.93003,-0.009 1.9574,-0.08035 z m -3.42006,-4.747495 c 0.0266,-0.04089 0.0424,-0.188651 0.0351,-0.328351 -0.012,-0.231114 -0.0235,-0.252568 -0.12751,-0.238106 -0.13373,0.0186 -0.16321,-0.1258 -0.031,-0.151869 0.0458,-0.009 -0.0469,-0.06057 -0.20598,-0.114522 -0.24202,-0.08207 -0.3164,-0.0883 -0.45521,-0.0381 -0.0913,0.033 -0.21493,0.06 -0.27483,0.06 -0.0599,0 -0.13257,0.04422 -0.16149,0.09826 -0.071,0.132705 -0.0669,0.679869 0.006,0.752422 0.0908,0.0908 1.15305,0.05607 1.2153,-0.03973 z m -0.8036,-0.08259 c -0.075,-0.03028 -0.0867,-0.372757 -0.0127,-0.372757 0.0279,0 0.0508,-0.02421 0.0508,-0.0538 0,-0.02959 -0.0226,-0.03983 -0.0502,-0.02276 -0.0288,0.0178 -0.0373,-0.0026 -0.02,-0.0478 0.0427,-0.111166 0.33847,-0.101782 0.4433,0.01406 0.10547,0.116541 0.10851,0.332616 0.006,0.435011 -0.0701,0.07009 -0.0957,0.06798 -0.25399,-0.0209 -0.0968,-0.05438 -0.17604,-0.07754 -0.17604,-0.05146 0,0.02607 0.04,0.07071 0.0889,0.09919 0.0908,0.05289 0.0384,0.06748 -0.0762,0.02123 z m 12.3063,7.150731 c -0.11176,-0.05185 -0.27634,-0.171368 -0.36573,-0.265584 -0.33225,-0.350193 -0.32019,-0.201175 -0.31896,-3.941572 10e-4,-3.304945 0.004,-3.398434 0.10476,-3.621132 0.12892,-0.284378 0.26803,-0.435931 0.52913,-0.576443 0.20136,-0.108365 0.23371,-0.109484 3.57078,-0.123454 2.18597,-0.0091 3.43546,0.0042 3.56103,0.03799 0.44639,0.120202 0.8082,0.544248 0.85551,1.002687 l 0.0251,0.243418 -0.14357,-0.139007 c -0.11257,-0.108984 -0.13026,-0.152323 -0.0819,-0.20066 0.15031,-0.150312 -0.0189,-0.393388 -0.20242,-0.290709 -0.0576,0.03226 -0.10743,0.02302 -0.16016,-0.02971 -0.18479,-0.184794 -0.32002,-0.02492 -0.25809,0.305151 0.0224,0.119334 0.0807,0.211753 0.16781,0.265893 0.0734,0.04564 0.25352,0.20592 0.40021,0.356174 l 0.2667,0.27319 -3e-4,2.904838 c -2.1e-4,1.891143 -0.0191,2.972571 -0.0542,3.098933 -0.0688,0.247967 -0.37003,0.582721 -0.63133,0.701729 -0.19016,0.08661 -0.42328,0.09254 -3.6322,0.09254 -3.23341,0 -3.44059,-0.0054 -3.6322,-0.09428 z m 5.5499,-2.266446 c 0.0482,-0.01629 0.0635,-0.290062 0.0635,-1.137959 0,-1.093379 0.003,-1.121454 0.127,-1.35536 0.0699,-0.13137 0.127,-0.291163 0.127,-0.355095 0,-0.10345 0.0187,-0.113206 0.16993,-0.08866 0.46472,0.07541 0.84174,-0.463861 0.62174,-0.889297 -0.0823,-0.159193 -0.082,-0.160668 0.0411,-0.160668 0.0683,0 0.16603,-0.01272 0.21721,-0.02826 0.0717,-0.02176 0.0668,-0.0086 -0.0212,0.057 -0.2276,0.169754 -0.0624,0.432655 0.20745,0.330073 0.14154,-0.05382 0.28785,-0.238352 0.28785,-0.363072 0,-0.06146 0.0333,-0.07688 0.12729,-0.05892 0.14004,0.02677 0.27911,-0.06046 0.27911,-0.175071 0,-0.108736 -0.67167,-0.879352 -0.76644,-0.879352 -0.0934,0 -0.26531,0.170519 -0.21878,0.217047 0.0171,0.01705 -0.0497,0.06472 -0.14834,0.105934 -0.23061,0.09635 -0.3586,0.287868 -0.31749,0.475055 0.0308,0.140235 0.0284,0.141764 -0.22001,0.141764 -0.19015,0 -0.28056,0.02762 -0.37218,0.113694 -0.1205,0.113206 -0.12953,0.113752 -2.09959,0.127 l -1.97857,0.01331 -0.0133,1.924451 c -0.008,1.128185 0.006,1.947932 0.0337,1.9812 0.0335,0.04043 0.58526,0.05242 1.91831,0.0417 1.02919,-0.0083 1.89983,-0.02471 1.93475,-0.0365 z m 0.4064,-3.330711 c -0.0576,-0.03358 -0.0889,-0.11377 -0.0889,-0.228144 0,-0.235282 0.1825,-0.334318 0.37892,-0.205622 0.15514,0.101655 0.1656,0.248916 0.0275,0.387035 -0.11289,0.112884 -0.18556,0.123581 -0.3175,0.04673 z m 0.92483,-1.162058 c 0.0819,-0.08187 0.12955,-0.09851 0.16906,-0.059 0.0689,0.0689 0.0478,0.08997 -0.13615,0.13615 l -0.14695,0.03688 z m 0.002,-0.793054 c 0,-0.144748 -0.12652,-0.21558 -0.24821,-0.138958 -0.11795,0.07427 -0.13293,0.226628 -0.0297,0.302114 0.12349,0.0903 0.27791,-3.56e-4 0.27791,-0.163156 z m 6.77896,7.552966 c -0.25367,-0.115218 -0.54523,-0.44687 -0.62401,-0.709793 -0.0754,-0.251622 -0.084,-6.702236 -0.009,-6.962705 0.0778,-0.271128 0.30297,-0.556803 0.55641,-0.705799 l 0.23216,-0.136488 h 3.4798 c 3.46831,0 3.48048,3.56e-4 3.683,0.109648 0.11176,0.06031 0.26485,0.174606 0.34021,0.254 0.30326,0.319528 0.29479,0.20613 0.29479,3.94692 v 3.424831 l -0.1419,0.272501 c -0.10946,0.2102 -0.20477,0.310246 -0.41685,0.437601 l -0.27495,0.1651 -3.45665,-0.0011 c -3.24815,-10e-4 -3.46907,-0.0068 -3.66268,-0.0947 z m 5.59084,-4.222185 v -1.9558 l -1.89904,-0.01332 c -1.35944,-0.0095 -1.91878,0.0031 -1.9685,0.04432 -0.0565,0.04686 -0.0695,0.411199 -0.0695,1.947958 0,1.039672 0.0155,1.905821 0.0344,1.924775 0.019,0.01895 0.90478,0.02848 1.9685,0.02117 l 1.93404,-0.01329 z m 7.61019,13.761004 c 0.0761,-0.121503 0.005,-0.248203 -0.13847,-0.248203 -0.15499,0 -0.24424,0.137561 -0.17418,0.268473 0.0591,0.110479 0.238,0.09889 0.31265,-0.02027 z M 368.52769,25.515928 c 0.0373,-0.03048 0.0635,-0.17129 0.0635,-0.340816 0,-0.158878 -0.0286,-0.324525 -0.0635,-0.368104 -0.0349,-0.04358 -0.18362,-0.121082 -0.33044,-0.172229 -0.22355,-0.07788 -0.29431,-0.0831 -0.43541,-0.03208 -0.0926,0.03351 -0.21747,0.06092 -0.27737,0.06092 -0.14894,0 -0.21408,0.144729 -0.21408,0.475632 0,0.400343 0.0428,0.427634 0.6712,0.428172 0.28743,2.54e-4 0.55117,-0.02293 0.5861,-0.0515 z m -0.6477,-0.163624 c 0,-0.04033 -0.0461,-0.105596 -0.10241,-0.145046 -0.18511,-0.129662 -0.0759,-0.391235 0.16331,-0.391235 0.24972,0 0.37461,0.263761 0.24211,0.51134 -0.062,0.115878 -0.30301,0.135715 -0.30301,0.02494 z m 0.4572,-0.510881 c 0,-0.04191 0.0343,-0.0762 0.0762,-0.0762 0.0419,0 0.0762,0.03429 0.0762,0.0762 0,0.04191 -0.0343,0.0762 -0.0762,0.0762 -0.0419,0 -0.0762,-0.03429 -0.0762,-0.0762 z m 18.4912,0.149018 c 0,-0.144748 -0.12652,-0.215579 -0.2482,-0.138957 -0.11796,0.07427 -0.13294,0.226628 -0.0297,0.302113 0.12348,0.0903 0.2779,-3.55e-4 0.2779,-0.163156 z m -40.06561,0.07379 c 0.0761,-0.121503 0.005,-0.248205 -0.13848,-0.248205 -0.15498,0 -0.24423,0.137564 -0.17417,0.268471 0.0591,0.110483 0.238,0.09889 0.31265,-0.02027 z m 12.50117,-1.49696 c 0.017,-0.04419 0.0303,-0.28994 0.0297,-0.5461 -0.001,-0.545648 -0.0966,-0.812449 -0.36165,-1.013059 -0.52156,-0.394681 -1.18779,-0.218061 -1.43821,0.381276 -0.08,0.191529 -0.11521,1.153922 -0.0448,1.224371 0.0186,0.01863 0.42766,0.03387 0.90897,0.03387 0.75111,0 0.87946,-0.01139 0.90593,-0.08036 z m 10.5156,0 c 0.0645,-0.168186 0.0312,-0.988719 -0.0478,-1.177883 -0.32487,-0.777534 -1.35932,-0.801349 -1.70549,-0.03926 -0.0704,0.15499 -0.0935,0.330829 -0.0944,0.717534 -6.1e-4,0.281729 0.0141,0.527474 0.0327,0.5461 0.0186,0.01863 0.42766,0.03387 0.90897,0.03387 0.75111,0 0.87946,-0.01139 0.90593,-0.08036 z m 10.53685,-0.427645 c 0.0179,-0.546298 -0.0364,-0.789676 -0.22642,-1.015535 -0.18687,-0.22208 -0.40366,-0.318815 -0.70837,-0.316077 -0.43219,0.0039 -0.77018,0.256784 -0.88219,0.66009 -0.0586,0.211133 -0.0725,1.092328 -0.018,1.146789 0.0192,0.01925 0.43645,0.02877 0.9271,0.02117 l 0.8921,-0.01383 z M 371.56662,73.301 c -0.0947,-0.09475 -0.10436,-0.281732 -0.0189,-0.367213 0.0335,-0.03353 0.12039,-0.06096 0.19304,-0.06096 0.0726,0 0.15951,0.02743 0.19304,0.06096 0.14366,0.143667 0.0127,0.44704 -0.19304,0.44704 -0.0519,0 -0.13027,-0.03592 -0.17418,-0.07983 z m 16.21297,-30.94638 c -0.0482,-0.05324 -0.0876,-0.123572 -0.0876,-0.156297 0,-0.03272 -0.0257,-0.0595 -0.057,-0.0595 -0.0871,0 0.0402,-0.136161 0.15551,-0.166306 0.11042,-0.02887 0.16534,0.147489 0.11017,0.353784 -0.0327,0.122242 -0.0355,0.122893 -0.12106,0.02832 z M 347.01213,30.098276 c -0.49312,-0.129197 -1.00211,-0.403477 -1.37505,-0.740969 -0.34125,-0.308814 -0.71942,-0.837988 -0.71733,-1.003772 10e-4,-0.09636 0.0172,-0.08939 0.14292,0.06214 0.15192,0.183142 0.28701,0.198732 0.38367,0.04428 0.0433,-0.06914 0.0361,-0.125032 -0.0309,-0.242271 l -0.0871,-0.152398 0.18242,-0.167178 c 0.1276,-0.116932 0.19215,-0.227333 0.21479,-0.367329 0.0321,-0.198638 0.0344,-0.200352 0.29631,-0.226766 0.47232,-0.04763 0.73979,-0.455141 0.55418,-0.84436 -0.0456,-0.09563 -0.0829,-0.184526 -0.0829,-0.197548 0,-0.01302 0.0857,-0.02298 0.1905,-0.02213 0.15406,0.0012 0.1735,0.01145 0.1016,0.05332 -0.12114,0.07056 -0.11342,0.28403 0.0127,0.351531 0.0756,0.04045 0.1016,0.106366 0.1016,0.257419 0,0.223755 0.1086,0.524376 0.24312,0.673023 0.13913,0.153736 0.35655,0.244214 0.70565,0.293653 0.53617,0.07593 0.88922,0.32204 1.06553,0.742774 0.0961,0.229345 0.0835,0.662265 -0.0263,0.903331 -0.11901,0.261305 -0.45376,0.56248 -0.70173,0.631337 -0.28902,0.08026 -0.75708,0.06108 -1.17374,-0.04808 z m -2.08358,-2.447613 c -0.0335,-0.03353 -0.061,-0.120396 -0.061,-0.19304 0,-0.07264 0.0274,-0.159512 0.061,-0.19304 0.0335,-0.03353 0.12039,-0.06096 0.19304,-0.06096 0.16198,0 0.254,0.08518 0.254,0.235132 0,0.222468 -0.29612,0.362834 -0.44704,0.211908 z m 40.96367,-0.730068 c -0.0439,-0.04391 -0.0798,-0.147342 -0.0798,-0.229858 0,-0.115337 0.031,-0.161796 0.13385,-0.200921 0.29169,-0.110898 0.51322,0.255035 0.26124,0.431527 -0.14258,0.09987 -0.21482,0.0997 -0.31527,-7.47e-4 z m -40.07696,-0.06387 c -0.10927,-0.120745 -0.10645,-0.226704 0.009,-0.331026 0.13415,-0.121408 0.29841,-0.103529 0.39437,0.04293 0.0771,0.117646 0.0771,0.136354 0,0.254 -0.0989,0.150992 -0.2833,0.166585 -0.4032,0.0341 z m 41.01055,-1.07292 c 0.10569,-0.10569 0.12172,-0.108413 0.19671,-0.03342 0.0684,0.06844 0.0696,0.08175 0.007,0.08234 -0.0409,4.06e-4 -0.12944,0.01542 -0.19671,0.03342 l -0.12233,0.03273 z m -40.01818,-0.03399 c 0.0452,-0.04522 0.10726,-0.06673 0.13788,-0.0478 0.10087,0.06234 0.0581,0.130013 -0.0822,0.130013 -0.12704,0 -0.13142,-0.0065 -0.0557,-0.08221 z m 1.4747,-0.962183 c -0.21179,-0.148342 -0.0962,-0.479607 0.1674,-0.479607 0.1155,0 0.27866,0.164523 0.27866,0.280994 0,0.190488 -0.2798,0.315069 -0.44606,0.198613 z m 1.79605,-1.542217 c -0.11986,-0.132435 -0.0833,-0.314956 0.0816,-0.407207 0.12437,-0.06958 0.14537,-0.06794 0.2413,0.01888 0.12992,0.117581 0.13516,0.290365 0.0122,0.401669 -0.12203,0.110434 -0.22688,0.106261 -0.33511,-0.01334 z m 0.89371,-0.933169 c -0.041,-0.04969 -0.0536,-0.126516 -0.032,-0.194458 0.0318,-0.100269 0.0408,-0.103098 0.0837,-0.02638 0.0264,0.04727 0.0409,0.134771 0.032,0.194458 -0.0145,0.09799 -0.0226,0.100547 -0.0837,0.02638 z"
         id="path5037"
         inkscape:connector-curvature="0" />
    </g>
  </g>
</svg>
