<?xml version="1.0" encoding="UTF-8" standalone="no"?>
<!-- Created with Inkscape (http://www.inkscape.org/) -->

<svg
   xmlns:dc="http://purl.org/dc/elements/1.1/"
   xmlns:cc="http://creativecommons.org/ns#"
   xmlns:rdf="http://www.w3.org/1999/02/22-rdf-syntax-ns#"
   xmlns:svg="http://www.w3.org/2000/svg"
   xmlns="http://www.w3.org/2000/svg"
   xmlns:sodipodi="http://sodipodi.sourceforge.net/DTD/sodipodi-0.dtd"
   xmlns:inkscape="http://www.inkscape.org/namespaces/inkscape"
   width="210mm"
   height="297mm"
   viewBox="0 0 210 297"
   version="1.1"
   id="svg8"
   inkscape:version="0.92.4 (5da689c313, 2019-01-14)"
   sodipodi:docname="fleche bas.svg">
  <defs
     id="defs2" />
  <sodipodi:namedview
     id="base"
     pagecolor="#ffffff"
     bordercolor="#666666"
     borderopacity="1.0"
     inkscape:pageopacity="0.0"
     inkscape:pageshadow="2"
     inkscape:zoom="0.35"
     inkscape:cx="-75.714286"
     inkscape:cy="560"
     inkscape:document-units="mm"
     inkscape:current-layer="layer1"
     showgrid="false"
     inkscape:window-width="1600"
     inkscape:window-height="837"
     inkscape:window-x="-8"
     inkscape:window-y="-8"
     inkscape:window-maximized="1" />
  <metadata
     id="metadata5">
    <rdf:RDF>
      <cc:Work
         rdf:about="">
        <dc:format>image/svg+xml</dc:format>
        <dc:type
           rdf:resource="http://purl.org/dc/dcmitype/StillImage" />
        <dc:title></dc:title>
      </cc:Work>
    </rdf:RDF>
  </metadata>
  <g
     inkscape:label="Capa 1"
     inkscape:groupmode="layer"
     id="layer1">
    <path
       style="fill:#008000;stroke-width:0.75595242"
       d="m 63.772115,158.62588 c -22.435137,-28.54485 -40.897193,-52.16665 -41.026786,-52.4929 -0.129593,-0.32626 8.092011,-0.70032 18.270244,-0.83124 10.178235,-0.13093 18.707737,-0.44054 18.954453,-0.68802 0.246714,-0.24749 0.448572,-14.279853 0.448572,-31.183036 V 42.697618 h 44.592182 44.5922 v 30.895139 30.895133 l 2.83482,0.46857 c 1.55915,0.25771 10.24837,0.47231 19.30937,0.47688 l 16.47454,0.008 -4.08129,5.10268 c -2.24472,2.80647 -20.66554,26.02366 -40.93515,51.59375 -20.26962,25.57009 -37.25617,46.91776 -37.74791,47.43927 -0.70151,0.74398 -9.680155,-10.23054 -41.685245,-50.95149 z"
       id="path39"
       inkscape:connector-curvature="0" />
  </g>
</svg>
