<?xml version="1.0" encoding="UTF-8" standalone="no"?>
<!-- Created with Inkscape (http://www.inkscape.org/) -->

<svg
   xmlns:dc="http://purl.org/dc/elements/1.1/"
   xmlns:cc="http://creativecommons.org/ns#"
   xmlns:rdf="http://www.w3.org/1999/02/22-rdf-syntax-ns#"
   xmlns:svg="http://www.w3.org/2000/svg"
   xmlns="http://www.w3.org/2000/svg"
   xmlns:sodipodi="http://sodipodi.sourceforge.net/DTD/sodipodi-0.dtd"
   xmlns:inkscape="http://www.inkscape.org/namespaces/inkscape"
   width="210mm"
   height="297mm"
   viewBox="0 0 210 297"
   version="1.1"
   id="svg8"
   inkscape:version="0.92.4 (5da689c313, 2019-01-14)"
   sodipodi:docname="instagram.svg">
  <defs
     id="defs2" />
  <sodipodi:namedview
     id="base"
     pagecolor="#ffffff"
     bordercolor="#666666"
     borderopacity="1.0"
     inkscape:pageopacity="0.0"
     inkscape:pageshadow="2"
     inkscape:zoom="0.35"
     inkscape:cx="-37.142857"
     inkscape:cy="560"
     inkscape:document-units="mm"
     inkscape:current-layer="layer1"
     showgrid="false"
     inkscape:window-width="1600"
     inkscape:window-height="837"
     inkscape:window-x="-8"
     inkscape:window-y="-8"
     inkscape:window-maximized="1" />
  <metadata
     id="metadata5">
    <rdf:RDF>
      <cc:Work
         rdf:about="">
        <dc:format>image/svg+xml</dc:format>
        <dc:type
           rdf:resource="http://purl.org/dc/dcmitype/StillImage" />
        <dc:title></dc:title>
      </cc:Work>
    </rdf:RDF>
  </metadata>
  <g
     inkscape:label="Capa 1"
     inkscape:groupmode="layer"
     id="layer1">
    <path
       style="fill:#000000;stroke-width:2.85714293"
       d=""
       id="path4574"
       inkscape:connector-curvature="0"
       transform="scale(0.26458333)" />
    <path
       style="fill:#000000;stroke-width:2.85714293"
       d=""
       id="path4584"
       inkscape:connector-curvature="0"
       transform="scale(0.26458333)" />
    <path
       style="fill:#000000;stroke-width:2.85714293"
       d=""
       id="path4586"
       inkscape:connector-curvature="0"
       transform="scale(0.26458333)" />
    <path
       style="fill:#000000;stroke-width:2.85714293"
       d=""
       id="path4588"
       inkscape:connector-curvature="0"
       transform="scale(0.26458333)" />
    <path
       style="fill:#000000;stroke-width:2.85714293"
       d=""
       id="path4590"
       inkscape:connector-curvature="0"
       transform="scale(0.26458333)" />
    <path
       style="fill:#aa4400;stroke-width:2.85714293"
       d=""
       id="path4649"
       inkscape:connector-curvature="0"
       transform="scale(0.26458333)" />
    <path
       style="fill:#aa4400;stroke-width:2.85714293"
       d=""
       id="path4651"
       inkscape:connector-curvature="0"
       transform="scale(0.26458333)" />
    <path
       style="fill:#aa4400;stroke-width:2.85714293"
       d=""
       id="path4653"
       inkscape:connector-curvature="0"
       transform="scale(0.26458333)" />
    <path
       style="fill:#aa4400;stroke-width:2.85714293"
       d=""
       id="path4655"
       inkscape:connector-curvature="0"
       transform="scale(0.26458333)" />
    <path
       style="fill:#aa4400;stroke-width:2.85714293"
       d=""
       id="path4657"
       inkscape:connector-curvature="0"
       transform="scale(0.26458333)" />
    <path
       style="fill:#aa4400;stroke-width:2.85714293"
       d=""
       id="path4665"
       inkscape:connector-curvature="0"
       transform="scale(0.26458333)" />
    <path
       style="fill:#aa4400;stroke-width:2.85714293"
       d=""
       id="path4667"
       inkscape:connector-curvature="0"
       transform="scale(0.26458333)" />
    <path
       style="fill:#aa4400;stroke-width:2.85714293"
       d=""
       id="path4683"
       inkscape:connector-curvature="0"
       transform="scale(0.26458333)" />
    <path
       style="fill:#aa4400;stroke-width:2.85714293"
       d=""
       id="path4687"
       inkscape:connector-curvature="0"
       transform="scale(0.26458333)" />
    <path
       style="fill:#aa4400;stroke-width:2.85714293"
       d=""
       id="path4689"
       inkscape:connector-curvature="0"
       transform="scale(0.26458333)" />
    <path
       style="fill:#aa4400;stroke-width:2.85714293"
       d=""
       id="path4701"
       inkscape:connector-curvature="0"
       transform="scale(0.26458333)" />
    <path
       style="fill:#aa4400;stroke-width:2.85714293"
       d=""
       id="path4703"
       inkscape:connector-curvature="0"
       transform="scale(0.26458333)" />
    <path
       style="fill:#aa4400;stroke-width:2.85714293"
       d=""
       id="path4705"
       inkscape:connector-curvature="0"
       transform="scale(0.26458333)" />
    <path
       style="fill:#aa4400;stroke-width:2.85714293"
       d=""
       id="path4707"
       inkscape:connector-curvature="0"
       transform="scale(0.26458333)" />
    <path
       style="fill:#aa4400;stroke-width:2.85714293"
       d=""
       id="path4709"
       inkscape:connector-curvature="0"
       transform="scale(0.26458333)" />
    <path
       style="fill:#aa4400;stroke-width:2.85714293"
       d=""
       id="path4711"
       inkscape:connector-curvature="0"
       transform="scale(0.26458333)" />
    <path
       style="fill:#aa4400;stroke-width:2.85714293"
       d=""
       id="path4713"
       inkscape:connector-curvature="0"
       transform="scale(0.26458333)" />
    <path
       style="fill:#aa4400;stroke-width:2.85714293"
       d=""
       id="path4719"
       inkscape:connector-curvature="0"
       transform="scale(0.26458333)" />
    <path
       style="fill:#aa4400;stroke-width:2.85714293"
       d=""
       id="path4725"
       inkscape:connector-curvature="0"
       transform="scale(0.26458333)" />
    <path
       style="fill:#aa4400;stroke-width:2.85714293"
       d=""
       id="path4727"
       inkscape:connector-curvature="0"
       transform="scale(0.26458333)" />
    <path
       style="fill:#aa4400;stroke-width:2.85714293"
       d=""
       id="path4729"
       inkscape:connector-curvature="0"
       transform="scale(0.26458333)" />
    <path
       style="fill:#aa4400;stroke-width:2.85714293"
       d=""
       id="path4731"
       inkscape:connector-curvature="0"
       transform="scale(0.26458333)" />
    <path
       style="fill:#aa4400;stroke-width:2.85714293"
       d=""
       id="path4733"
       inkscape:connector-curvature="0"
       transform="scale(0.26458333)" />
    <path
       style="fill:#aa4400;stroke-width:2.85714293"
       d=""
       id="path4735"
       inkscape:connector-curvature="0"
       transform="scale(0.26458333)" />
    <path
       style="fill:#ff6600;stroke-width:2.85714293"
       d=""
       id="path4896"
       inkscape:connector-curvature="0"
       transform="scale(0.26458333)" />
    <path
       style="fill:#ff6600;stroke-width:0.75595242"
       d="m 83.296614,170.20707 c -5.86205,-2.21106 -10.73546,-7.35631 -12.29672,-12.98267 -0.50477,-1.81906 -0.83414,-9.95112 -0.82669,-20.41071 0.0113,-15.85129 0.14823,-17.68735 1.55046,-20.78869 1.88279,-4.16421 5.37148,-7.91022 9.39003,-10.08262 2.86501,-1.5488 3.99646,-1.63464 21.544636,-1.63464 17.66474,0 18.6653,0.0773 21.64628,1.67169 4.12606,2.20689 7.74209,5.90162 9.44523,9.65082 1.21707,2.67918 1.38321,5.26728 1.39784,21.77468 0.0178,20.12888 -0.19877,21.52153 -4.15397,26.70706 -1.02076,1.3383 -3.95609,3.48272 -6.52295,4.7654 l -4.66701,2.33213 -17.07717,-0.0575 c -11.094476,-0.0374 -17.901436,-0.36841 -19.429966,-0.94494 z m 38.109076,-6.11161 c 2.36,-1.23292 5.55764,-4.52264 7.04612,-7.24903 0.78752,-1.44247 1.0306,-6.0061 1.02675,-19.27679 -0.004,-14.7151 -0.19633,-17.7354 -1.24991,-19.65476 -1.82447,-3.32376 -5.28935,-6.35154 -8.23533,-7.19644 -1.42116,-0.40758 -9.38975,-0.73359 -17.70797,-0.72446 -13.051646,0.0143 -15.538376,0.20687 -18.147846,1.40514 -7.15709,3.28655 -7.9375,5.89735 -7.9375,26.55433 0,14.8814 0.15476,16.98858 1.43146,19.49006 3.49566,6.84914 6.18363,7.64337 26.009346,7.68521 12.11703,0.0256 16.19178,-0.21143 17.76488,-1.03326 z"
       id="path4898"
       inkscape:connector-curvature="0" />
    <path
       style="fill:#ff6600;stroke-width:0.75595242"
       d="m 98.122624,154.96573 c -7.07705,-2.27411 -11.85152,-8.30668 -12.6429,-15.97435 -1.13718,-11.01823 8.63458,-20.81395 19.617876,-19.66596 7.03819,0.73563 12.27244,4.19788 15.23932,10.08019 1.57836,3.12936 1.60466,11.44863 0.048,15.18087 -3.49751,8.38557 -13.68525,13.13536 -22.262276,10.37925 z m 11.422976,-8.76224 c 3.38745,-2.41207 4.67587,-5.54636 4.27366,-10.3964 -0.28973,-3.49383 -0.72928,-4.50437 -2.74111,-6.30194 -2.09755,-1.87416 -2.99401,-2.14087 -7.19586,-2.14087 -3.77907,0 -5.242886,0.34852 -6.883256,1.63883 -2.33698,1.83827 -4.16807,5.62383 -4.16807,8.61699 0,3.06477 2.27536,7.15746 4.85318,8.72941 3.227236,1.96797 8.992306,1.897 11.861456,-0.14602 z"
       id="path4900"
       inkscape:connector-curvature="0" />
    <path
       style="fill:#ff6600;stroke-width:0.75595242"
       d="m 118.07315,119.40741 c -1.17146,-1.78787 -1.16512,-2.00414 0.0997,-3.40178 2.32987,-2.57448 5.65212,-1.45224 5.65212,1.90925 0,3.59079 -3.74097,4.56153 -5.75185,1.49253 z"
       id="path4902"
       inkscape:connector-curvature="0" />
  </g>
</svg>
