<?xml version="1.0" encoding="UTF-8" standalone="no"?>
<!-- Created with Inkscape (http://www.inkscape.org/) -->

<svg
   xmlns:dc="http://purl.org/dc/elements/1.1/"
   xmlns:cc="http://creativecommons.org/ns#"
   xmlns:rdf="http://www.w3.org/1999/02/22-rdf-syntax-ns#"
   xmlns:svg="http://www.w3.org/2000/svg"
   xmlns="http://www.w3.org/2000/svg"
   xmlns:sodipodi="http://sodipodi.sourceforge.net/DTD/sodipodi-0.dtd"
   xmlns:inkscape="http://www.inkscape.org/namespaces/inkscape"
   width="210mm"
   height="297mm"
   viewBox="0 0 210 297"
   version="1.1"
   id="svg8"
   inkscape:version="0.92.4 (5da689c313, 2019-01-14)"
   sodipodi:docname="logo-resto.svg">
  <defs
     id="defs2" />
  <sodipodi:namedview
     id="base"
     pagecolor="#ffffff"
     bordercolor="#666666"
     borderopacity="1.0"
     inkscape:pageopacity="0.0"
     inkscape:pageshadow="2"
     inkscape:zoom="0.35"
     inkscape:cx="-75.714286"
     inkscape:cy="445.71429"
     inkscape:document-units="mm"
     inkscape:current-layer="g52"
     showgrid="false"
     inkscape:window-width="1600"
     inkscape:window-height="837"
     inkscape:window-x="-8"
     inkscape:window-y="-8"
     inkscape:window-maximized="1" />
  <metadata
     id="metadata5">
    <rdf:RDF>
      <cc:Work
         rdf:about="">
        <dc:format>image/svg+xml</dc:format>
        <dc:type
           rdf:resource="http://purl.org/dc/dcmitype/StillImage" />
        <dc:title></dc:title>
      </cc:Work>
    </rdf:RDF>
  </metadata>
  <g
     inkscape:label="Capa 1"
     inkscape:groupmode="layer"
     id="layer1">
    <g
       id="g52"
       transform="translate(-40.821427,-21.166667)">
      <g
         id="g81"
         transform="matrix(1.5127386,0,0,1.7039023,108.95617,-115.9862)">
        <path
           style="fill:#fff6d5;stroke-width:0.25399998"
           d="m 11.768669,189.32079 c -3.2893104,-0.33642 -5.0800004,-0.8739 -5.0800004,-1.52477 0,-0.10999 5.4578204,-0.25501 12.1285004,-0.32228 11.62719,-0.11725 13.5255,-0.21762 13.5255,-0.71516 0,-0.12617 -4.58623,-0.22593 -10.4775,-0.2279 -14.8756004,-0.005 -24.6763704,-0.54527 -26.0621504,-1.43669 -0.32926,-0.2118 -0.50071,-0.47262 -0.381,-0.57961 0.11971,-0.10698 3.1323,-0.10479 6.69465,0.005 8.3376604,0.25666 29.7623404,0.25666 38.1000004,0 3.56235,-0.10966 6.55796,-0.12882 6.65692,-0.0426 0.3905,0.34029 -0.26912,0.79352 -1.49252,1.02553 -0.70746,0.13417 -3.04469,0.37672 -5.19385,0.539 -2.14915,0.16229 -4.04364,0.40512 -4.20997,0.53963 -0.16634,0.1345 -0.33779,0.54967 -0.381,0.92259 -0.17542,1.51368 -2.51102,1.86149 -13.15958,1.95972 -4.67995,0.0432 -9.48055,-0.0209 -10.668,-0.14233 z m 20.96837,-6.5966 c -0.18593,-0.0699 -2.88258,-2.7559 -5.99256,-5.969 -3.10998,-3.2131 -5.85078,-5.87655 -6.09067,-5.91878 -0.288,-0.0507 -2.40599,1.95541 -6.23485,5.9055 l -5.7986904,5.98228 -2.4263,-0.006 -2.4263,-0.006 7.1873004,-7.04207 c 3.95302,-3.87314 7.18199,-7.22002 7.1755,-7.43751 -0.007,-0.2175 -0.96469,-1.41484 -2.12934,-2.66078 l -2.11753,-2.26533 -1.11274,0.50177 c -1.63841,0.73882 -4.3027004,0.69005 -5.9249104,-0.10846 -2.70167,-1.32987 -5.94953003,-5.67522 -7.17891003,-9.60475 -0.53034,-1.69514 -0.63558,-2.4691 -0.56051,-4.12208 0.0774,-1.70545 0.18596,-2.12855 0.66994,-2.61202 0.5176,-0.51705 0.82053,-0.57655 2.91936003,-0.57337 1.75896,0.003 2.75542,0.14568 4.00347,0.57461 3.7929804,1.30358 8.0357704,4.51353 9.2480104,6.99674 0.98066,2.00883 1.07625,3.38231 0.385,5.53212 l -0.58382,1.81566 2.16575,2.12716 c 1.21871,1.197 2.37558,2.12202 2.64559,2.1154 0.26391,-0.006 1.39128,-0.85658 2.50527,-1.88913 l 2.02542,-1.87736 -0.31092,-1.16252 c -0.76115,-2.84585 -0.20336,-4.28353 2.76783,-7.13399 2.33304,-2.23824 10.73644,-9.51524 10.98809,-9.51524 0.51675,0 -0.24393,0.8271 -3.64586,3.96423 -2.09166,1.92883 -3.86751,3.67505 -3.94633,3.88047 -0.0788,0.20542 0.011,0.5278 0.19958,0.7164 0.43571,0.43571 1.028,-0.003 5.51863,-4.08597 1.82547,-1.65984 3.39529,-2.94164 3.48847,-2.84845 0.0932,0.0932 -1.58458,1.92618 -3.72836,4.07332 -2.87004,2.87453 -3.85491,4.01564 -3.73516,4.32772 0.0894,0.2331 0.33119,0.3868 0.53719,0.34155 0.206,-0.0453 2.09297,-1.72034 4.19327,-3.72243 2.1003,-2.0021 3.93638,-3.60095 4.08018,-3.55302 0.1438,0.0479 -1.46497,1.89092 -3.57505,4.09552 -2.11008,2.2046 -3.79109,4.14635 -3.73557,4.31501 0.0555,0.16866 0.33281,0.34103 0.6162,0.38305 0.37903,0.0562 1.48955,-0.93433 4.20032,-3.7465 2.02679,-2.10259 3.75765,-3.8229 3.84635,-3.8229 0.4871,0 -0.16839,0.85256 -3.33121,4.33269 -3.40083,3.74201 -4.06577,4.82095 -3.08722,5.0094 0.25004,0.0482 1.75355,-1.36122 3.92526,-3.67952 3.49872,-3.73487 4.17846,-4.37469 4.17846,-3.93305 0,0.2618 -7.99301,9.61882 -9.99264,11.6979 -0.7207,0.74933 -1.76756,1.57549 -2.32636,1.83592 -1.14998,0.53594 -3.19896,0.62697 -4.43261,0.19692 -0.82479,-0.28752 -0.82748,-0.28567 -3.5939,2.47217 -1.52267,1.51795 -2.76849,2.95317 -2.76849,3.18938 0,0.36045 0.24478,0.42237 1.52332,0.38533 l 1.52332,-0.0441 6.32546,6.096 c 3.479,3.3528 6.3368,6.17302 6.35068,6.26716 0.0301,0.20427 -3.92048,0.3924 -4.40641,0.20984 z m -0.54003,-19.65098 c 1.57485,-0.85587 1.42382,-1.11121 -0.66925,-1.13145 -1.01865,-0.01 -2.30929,-0.0527 -2.86809,-0.0952 -0.97674,-0.0743 -1.016,-0.0479 -1.016,0.68467 0,0.64387 0.13782,0.80893 0.889,1.0647 1.09157,0.37166 2.34864,0.19236 3.66434,-0.52268 z m -20.42834,-0.0979 c 1.30742,-0.65313 1.18077,-1.2225 -0.254,-1.14187 -3.1609904,0.17764 -4.0084204,0.1717 -4.8210204,-0.0338 -0.83043,-0.20999 -0.86122,-0.196 -0.508,0.23075 1.05393,1.27331 3.9458504,1.76274 5.5830204,0.94489 z m 6.01133,19.07156 c -0.30123,-0.30124 -0.17959,-1.28395 0.19769,-1.59707 0.20186,-0.16752 0.63048,-0.26724 0.9525,-0.2216 0.47486,0.0673 0.60037,0.26296 0.66431,1.0355 0.0769,0.92904 0.0576,0.9525 -0.78317,0.9525 -0.47409,0 -0.93819,-0.0762 -1.03133,-0.16933 z m 3.556,0 c -0.30123,-0.30124 -0.17959,-1.28395 0.19769,-1.59707 0.20186,-0.16752 0.63048,-0.26724 0.9525,-0.2216 0.47486,0.0673 0.60037,0.26296 0.66431,1.0355 0.0769,0.92904 0.0576,0.9525 -0.78317,0.9525 -0.47409,0 -0.9382,-0.0762 -1.03133,-0.16933 z m -3.556,-3.556 c -0.30123,-0.30124 -0.17959,-1.28395 0.19769,-1.59707 0.20186,-0.16752 0.63048,-0.26724 0.9525,-0.2216 0.47486,0.0673 0.60037,0.26296 0.66431,1.0355 0.0769,0.92904 0.0576,0.9525 -0.78317,0.9525 -0.47409,0 -0.93819,-0.0762 -1.03133,-0.16933 z m 3.556,0 c -0.30123,-0.30124 -0.17959,-1.28395 0.19769,-1.59707 0.20186,-0.16752 0.63048,-0.26724 0.9525,-0.2216 0.47486,0.0673 0.60037,0.26296 0.66431,1.0355 0.0769,0.92904 0.0576,0.9525 -0.78317,0.9525 -0.47409,0 -0.9382,-0.0762 -1.03133,-0.16933 z"
           id="path85"
           inkscape:connector-curvature="0" />
      </g>
    </g>
  </g>
</svg>
