<?xml version="1.0" encoding="UTF-8" standalone="no"?>
<!-- Created with Inkscape (http://www.inkscape.org/) -->

<svg
   xmlns:dc="http://purl.org/dc/elements/1.1/"
   xmlns:cc="http://creativecommons.org/ns#"
   xmlns:rdf="http://www.w3.org/1999/02/22-rdf-syntax-ns#"
   xmlns:svg="http://www.w3.org/2000/svg"
   xmlns="http://www.w3.org/2000/svg"
   xmlns:sodipodi="http://sodipodi.sourceforge.net/DTD/sodipodi-0.dtd"
   xmlns:inkscape="http://www.inkscape.org/namespaces/inkscape"
   width="210mm"
   height="297mm"
   viewBox="0 0 210 297"
   version="1.1"
   id="svg8"
   inkscape:version="0.92.4 (5da689c313, 2019-01-14)"
   sodipodi:docname="montre.svg">
  <defs
     id="defs2" />
  <sodipodi:namedview
     id="base"
     pagecolor="#ffffff"
     bordercolor="#666666"
     borderopacity="1.0"
     inkscape:pageopacity="0.0"
     inkscape:pageshadow="2"
     inkscape:zoom="0.35"
     inkscape:cx="-127.14286"
     inkscape:cy="385.93867"
     inkscape:document-units="mm"
     inkscape:current-layer="layer1-1"
     showgrid="false"
     inkscape:window-width="1600"
     inkscape:window-height="837"
     inkscape:window-x="-8"
     inkscape:window-y="-8"
     inkscape:window-maximized="1" />
  <metadata
     id="metadata5">
    <rdf:RDF>
      <cc:Work
         rdf:about="">
        <dc:format>image/svg+xml</dc:format>
        <dc:type
           rdf:resource="http://purl.org/dc/dcmitype/StillImage" />
        <dc:title></dc:title>
      </cc:Work>
    </rdf:RDF>
  </metadata>
  <g
     inkscape:label="Capa 1"
     inkscape:groupmode="layer"
     id="layer1">
    <g
       id="layer1-1"
       inkscape:label="Capa 1"
       transform="matrix(1.042712,0,0,1,22.679885,-34.193573)">
      <path
         transform="scale(0.26458333)"
         inkscape:connector-curvature="0"
         id="path4574"
         d=""
         style="fill:#000000;stroke-width:2.85714293" />
      <path
         transform="scale(0.26458333)"
         inkscape:connector-curvature="0"
         id="path4584"
         d=""
         style="fill:#000000;stroke-width:2.85714293" />
      <path
         transform="scale(0.26458333)"
         inkscape:connector-curvature="0"
         id="path4586"
         d=""
         style="fill:#000000;stroke-width:2.85714293" />
      <path
         transform="scale(0.26458333)"
         inkscape:connector-curvature="0"
         id="path4588"
         d=""
         style="fill:#000000;stroke-width:2.85714293" />
      <path
         transform="scale(0.26458333)"
         inkscape:connector-curvature="0"
         id="path4590"
         d=""
         style="fill:#000000;stroke-width:2.85714293" />
      <path
         transform="scale(0.26458333)"
         inkscape:connector-curvature="0"
         id="path4649"
         d=""
         style="fill:#aa4400;stroke-width:2.85714293" />
      <path
         transform="scale(0.26458333)"
         inkscape:connector-curvature="0"
         id="path4651"
         d=""
         style="fill:#aa4400;stroke-width:2.85714293" />
      <path
         transform="scale(0.26458333)"
         inkscape:connector-curvature="0"
         id="path4653"
         d=""
         style="fill:#aa4400;stroke-width:2.85714293" />
      <path
         transform="scale(0.26458333)"
         inkscape:connector-curvature="0"
         id="path4655"
         d=""
         style="fill:#aa4400;stroke-width:2.85714293" />
      <path
         transform="scale(0.26458333)"
         inkscape:connector-curvature="0"
         id="path4657"
         d=""
         style="fill:#aa4400;stroke-width:2.85714293" />
      <path
         transform="scale(0.26458333)"
         inkscape:connector-curvature="0"
         id="path4665"
         d=""
         style="fill:#aa4400;stroke-width:2.85714293" />
      <path
         transform="scale(0.26458333)"
         inkscape:connector-curvature="0"
         id="path4667"
         d=""
         style="fill:#aa4400;stroke-width:2.85714293" />
      <path
         transform="scale(0.26458333)"
         inkscape:connector-curvature="0"
         id="path4683"
         d=""
         style="fill:#aa4400;stroke-width:2.85714293" />
      <path
         transform="scale(0.26458333)"
         inkscape:connector-curvature="0"
         id="path4687"
         d=""
         style="fill:#aa4400;stroke-width:2.85714293" />
      <path
         transform="scale(0.26458333)"
         inkscape:connector-curvature="0"
         id="path4689"
         d=""
         style="fill:#aa4400;stroke-width:2.85714293" />
      <path
         transform="scale(0.26458333)"
         inkscape:connector-curvature="0"
         id="path4701"
         d=""
         style="fill:#aa4400;stroke-width:2.85714293" />
      <path
         transform="scale(0.26458333)"
         inkscape:connector-curvature="0"
         id="path4703"
         d=""
         style="fill:#aa4400;stroke-width:2.85714293" />
      <path
         transform="scale(0.26458333)"
         inkscape:connector-curvature="0"
         id="path4705"
         d=""
         style="fill:#aa4400;stroke-width:2.85714293" />
      <path
         transform="scale(0.26458333)"
         inkscape:connector-curvature="0"
         id="path4707"
         d=""
         style="fill:#aa4400;stroke-width:2.85714293" />
      <path
         transform="scale(0.26458333)"
         inkscape:connector-curvature="0"
         id="path4709"
         d=""
         style="fill:#aa4400;stroke-width:2.85714293" />
      <path
         transform="scale(0.26458333)"
         inkscape:connector-curvature="0"
         id="path4711"
         d=""
         style="fill:#aa4400;stroke-width:2.85714293" />
      <path
         transform="scale(0.26458333)"
         inkscape:connector-curvature="0"
         id="path4713"
         d=""
         style="fill:#aa4400;stroke-width:2.85714293" />
      <path
         transform="scale(0.26458333)"
         inkscape:connector-curvature="0"
         id="path4719"
         d=""
         style="fill:#aa4400;stroke-width:2.85714293" />
      <path
         transform="scale(0.26458333)"
         inkscape:connector-curvature="0"
         id="path4725"
         d=""
         style="fill:#aa4400;stroke-width:2.85714293" />
      <path
         transform="scale(0.26458333)"
         inkscape:connector-curvature="0"
         id="path4727"
         d=""
         style="fill:#aa4400;stroke-width:2.85714293" />
      <path
         transform="scale(0.26458333)"
         inkscape:connector-curvature="0"
         id="path4729"
         d=""
         style="fill:#aa4400;stroke-width:2.85714293" />
      <path
         transform="scale(0.26458333)"
         inkscape:connector-curvature="0"
         id="path4731"
         d=""
         style="fill:#aa4400;stroke-width:2.85714293" />
      <path
         transform="scale(0.26458333)"
         inkscape:connector-curvature="0"
         id="path4733"
         d=""
         style="fill:#aa4400;stroke-width:2.85714293" />
      <path
         transform="scale(0.26458333)"
         inkscape:connector-curvature="0"
         id="path4735"
         d=""
         style="fill:#aa4400;stroke-width:2.85714293" />
      <path
         transform="scale(0.26458333)"
         inkscape:connector-curvature="0"
         id="path4896"
         d=""
         style="fill:#ff6600;stroke-width:2.85714293" />
      <path
         transform="scale(0.26458333)"
         inkscape:connector-curvature="0"
         id="path4941"
         d=""
         style="fill:#ffffff;stroke-width:2.85714293" />
      <path
         transform="scale(0.26458333)"
         inkscape:connector-curvature="0"
         id="path4943"
         d=""
         style="fill:#ffffff;stroke-width:2.85714293" />
      <path
         transform="scale(0.26458333)"
         inkscape:connector-curvature="0"
         id="path4945"
         d=""
         style="fill:#ffffff;stroke-width:2.85714293" />
      <path
         transform="scale(0.26458333)"
         inkscape:connector-curvature="0"
         id="path4947"
         d=""
         style="fill:#ffffff;stroke-width:2.85714293" />
      <path
         transform="scale(0.26458333)"
         inkscape:connector-curvature="0"
         id="path4949"
         d=""
         style="fill:#ffffff;stroke-width:2.85714293" />
      <path
         transform="scale(0.26458333)"
         inkscape:connector-curvature="0"
         id="path4951"
         d=""
         style="fill:#ffffff;stroke-width:2.85714293" />
      <path
         transform="scale(0.26458333)"
         inkscape:connector-curvature="0"
         id="path4957"
         d=""
         style="fill:#ffffff;stroke-width:2.85714293" />
      <path
         transform="scale(0.26458333)"
         inkscape:connector-curvature="0"
         id="path4959"
         d=""
         style="fill:#ffffff;stroke-width:2.85714293" />
      <path
         transform="scale(0.26458333)"
         inkscape:connector-curvature="0"
         id="path4973"
         d=""
         style="fill:#ffffff;stroke-width:2.85714293" />
      <path
         transform="scale(0.26458333)"
         inkscape:connector-curvature="0"
         id="path4975"
         d=""
         style="fill:#ffffff;stroke-width:2.85714293" />
      <path
         transform="scale(0.26458333)"
         inkscape:connector-curvature="0"
         id="path4989"
         d=""
         style="fill:#ffffff;stroke-width:2.85714293" />
      <path
         transform="scale(0.26458333)"
         inkscape:connector-curvature="0"
         id="path4991"
         d=""
         style="fill:#ffffff;stroke-width:2.85714293" />
      <path
         transform="scale(0.26458333)"
         inkscape:connector-curvature="0"
         id="path4993"
         d=""
         style="fill:#ffffff;stroke-width:2.85714293" />
      <path
         transform="scale(0.26458333)"
         inkscape:connector-curvature="0"
         id="path4995"
         d=""
         style="fill:#ffffff;stroke-width:2.85714293" />
      <path
         transform="scale(0.26458333)"
         inkscape:connector-curvature="0"
         id="path4997"
         d=""
         style="fill:#ffffff;stroke-width:2.85714293" />
      <path
         transform="scale(0.26458333)"
         inkscape:connector-curvature="0"
         id="path5001"
         d=""
         style="fill:#ffffff;stroke-width:2.85714293" />
      <g
         transform="translate(-265.33929,86.934522)"
         inkscape:transform-center-y="5.2916667"
         inkscape:transform-center-x="-81.642857"
         id="g5031" />
      <g
         transform="translate(-11.339282,4.5357143)"
         id="g5105">
        <path
           inkscape:connector-curvature="0"
           id="path5107"
           d="m 90.14298,230.70101 c -1.70987,-0.0991 -2.19639,-0.17798 -1.41919,-0.23008 0.97596,-0.0654 0.79304,-0.11388 -1.04659,-0.27723 -22.57299,-2.00432 -42.28978,-16.85614 -50.60215,-38.11645 -1.85817,-4.75261 -3.32836,-11.06465 -3.79117,-16.27687 -0.16078,-1.81073 -0.21183,-2.00722 -0.27192,-1.04659 -0.0411,0.65735 -0.13436,-0.0518 -0.20992,-1.59658 -0.0748,-1.52858 -0.0748,-4.02989 0,-5.55847 0.0756,-1.54477 0.1688,-2.25393 0.20992,-1.59658 0.0601,0.96063 0.11114,0.76414 0.27192,-1.04659 2.55162,-28.73671 25.65662,-51.8417 54.39332,-54.39332 1.81073,-0.16078 2.00722,-0.21183 1.04659,-0.27192 -0.65735,-0.0411 0.0518,-0.13436 1.59658,-0.20992 1.52858,-0.0748 4.02989,-0.0748 5.55847,0 1.54477,0.0756 2.25393,0.1688 1.59658,0.20992 -0.96063,0.0601 -0.76414,0.11114 1.04659,0.27192 28.73671,2.55162 51.84172,25.65661 54.39333,54.39332 0.16078,1.81073 0.21183,2.00722 0.27192,1.04659 0.0411,-0.65735 0.13437,0.0518 0.20993,1.59658 0.0748,1.52858 0.0748,4.02989 0,5.55847 -0.0756,1.54477 -0.16881,2.25393 -0.20993,1.59658 -0.0601,-0.96063 -0.11114,-0.76414 -0.27192,1.04659 -2.38632,26.87508 -22.80296,49.07471 -49.4084,53.72324 -1.49605,0.26139 -3.73126,0.55071 -4.96713,0.64293 -2.05619,0.15344 -2.14659,0.17977 -1.06439,0.31002 0.93153,0.11211 0.69924,0.15023 -1.09395,0.1795 -1.25214,0.0204 -2.58262,0.0728 -2.95663,0.11645 -0.37402,0.0436 -1.85086,0.0114 -3.28186,-0.0715 z m 7.68723,-7.59021 c 20.86083,-1.90475 38.75798,-16.02879 45.39012,-35.8209 6.31987,-18.86022 1.76559,-39.20159 -12.00936,-53.63881 -10.62375,-11.13453 -26.52597,-17.24072 -41.83672,-16.06462 -23.89728,1.83568 -43.46297,19.04695 -48.18211,42.38417 -3.15873,15.62063 1.08157,32.15167 11.40619,44.46771 11.03623,13.16489 28.15482,20.23172 45.23188,18.67245 z m -30.5077,-49.59602 c -2.53212,-1.28186 -2.53212,-4.99829 0,-6.27047 0.74644,-0.37502 1.79569,-0.41359 11.26065,-0.41393 8.39968,-2.3e-4 10.48852,-0.0618 10.69877,-0.31517 0.18462,-0.22245 0.27986,-5.80382 0.32463,-19.02345 0.0626,-18.47685 0.0694,-18.71673 0.55103,-19.36173 0.87605,-1.1732 1.61226,-1.56476 2.94202,-1.56476 1.32977,0 2.06598,0.39157 2.94201,1.56478 0.48292,0.64673 0.48829,0.85974 0.55055,21.82081 0.0696,23.44479 0.14786,22.18802 -1.45208,23.32927 l -0.73957,0.52753 -13.12743,0.0619 c -12.13992,0.0573 -13.18936,0.0306 -13.95058,-0.3548 z"
           style="fill:#010300;stroke-width:0.23653041" />
      </g>
    </g>
  </g>
</svg>
