<?xml version="1.0" encoding="UTF-8" standalone="no"?>
<!-- Created with Inkscape (http://www.inkscape.org/) -->

<svg
   xmlns:dc="http://purl.org/dc/elements/1.1/"
   xmlns:cc="http://creativecommons.org/ns#"
   xmlns:rdf="http://www.w3.org/1999/02/22-rdf-syntax-ns#"
   xmlns:svg="http://www.w3.org/2000/svg"
   xmlns="http://www.w3.org/2000/svg"
   xmlns:sodipodi="http://sodipodi.sourceforge.net/DTD/sodipodi-0.dtd"
   xmlns:inkscape="http://www.inkscape.org/namespaces/inkscape"
   width="210mm"
   height="297mm"
   viewBox="0 0 210 297"
   version="1.1"
   id="svg8"
   inkscape:version="0.92.4 (5da689c313, 2019-01-14)"
   sodipodi:docname="relog.svg">
  <defs
     id="defs2" />
  <sodipodi:namedview
     id="base"
     pagecolor="#ffffff"
     bordercolor="#666666"
     borderopacity="1.0"
     inkscape:pageopacity="0.0"
     inkscape:pageshadow="2"
     inkscape:zoom="0.35"
     inkscape:cx="-37.142857"
     inkscape:cy="560"
     inkscape:document-units="mm"
     inkscape:current-layer="layer1"
     showgrid="false"
     inkscape:window-width="1600"
     inkscape:window-height="837"
     inkscape:window-x="-8"
     inkscape:window-y="-8"
     inkscape:window-maximized="1" />
  <metadata
     id="metadata5">
    <rdf:RDF>
      <cc:Work
         rdf:about="">
        <dc:format>image/svg+xml</dc:format>
        <dc:type
           rdf:resource="http://purl.org/dc/dcmitype/StillImage" />
        <dc:title></dc:title>
      </cc:Work>
    </rdf:RDF>
  </metadata>
  <g
     inkscape:label="Capa 1"
     inkscape:groupmode="layer"
     id="layer1">
    <path
       style="fill:#000000;stroke-width:2.85714293"
       d=""
       id="path4574"
       inkscape:connector-curvature="0"
       transform="scale(0.26458333)" />
    <path
       style="fill:#000000;stroke-width:2.85714293"
       d=""
       id="path4584"
       inkscape:connector-curvature="0"
       transform="scale(0.26458333)" />
    <path
       style="fill:#000000;stroke-width:2.85714293"
       d=""
       id="path4586"
       inkscape:connector-curvature="0"
       transform="scale(0.26458333)" />
    <path
       style="fill:#000000;stroke-width:2.85714293"
       d=""
       id="path4588"
       inkscape:connector-curvature="0"
       transform="scale(0.26458333)" />
    <path
       style="fill:#000000;stroke-width:2.85714293"
       d=""
       id="path4590"
       inkscape:connector-curvature="0"
       transform="scale(0.26458333)" />
    <path
       style="fill:#aa4400;stroke-width:2.85714293"
       d=""
       id="path4649"
       inkscape:connector-curvature="0"
       transform="scale(0.26458333)" />
    <path
       style="fill:#aa4400;stroke-width:2.85714293"
       d=""
       id="path4651"
       inkscape:connector-curvature="0"
       transform="scale(0.26458333)" />
    <path
       style="fill:#aa4400;stroke-width:2.85714293"
       d=""
       id="path4653"
       inkscape:connector-curvature="0"
       transform="scale(0.26458333)" />
    <path
       style="fill:#aa4400;stroke-width:2.85714293"
       d=""
       id="path4655"
       inkscape:connector-curvature="0"
       transform="scale(0.26458333)" />
    <path
       style="fill:#aa4400;stroke-width:2.85714293"
       d=""
       id="path4657"
       inkscape:connector-curvature="0"
       transform="scale(0.26458333)" />
    <path
       style="fill:#aa4400;stroke-width:2.85714293"
       d=""
       id="path4665"
       inkscape:connector-curvature="0"
       transform="scale(0.26458333)" />
    <path
       style="fill:#aa4400;stroke-width:2.85714293"
       d=""
       id="path4667"
       inkscape:connector-curvature="0"
       transform="scale(0.26458333)" />
    <path
       style="fill:#aa4400;stroke-width:2.85714293"
       d=""
       id="path4683"
       inkscape:connector-curvature="0"
       transform="scale(0.26458333)" />
    <path
       style="fill:#aa4400;stroke-width:2.85714293"
       d=""
       id="path4687"
       inkscape:connector-curvature="0"
       transform="scale(0.26458333)" />
    <path
       style="fill:#aa4400;stroke-width:2.85714293"
       d=""
       id="path4689"
       inkscape:connector-curvature="0"
       transform="scale(0.26458333)" />
    <path
       style="fill:#aa4400;stroke-width:2.85714293"
       d=""
       id="path4701"
       inkscape:connector-curvature="0"
       transform="scale(0.26458333)" />
    <path
       style="fill:#aa4400;stroke-width:2.85714293"
       d=""
       id="path4703"
       inkscape:connector-curvature="0"
       transform="scale(0.26458333)" />
    <path
       style="fill:#aa4400;stroke-width:2.85714293"
       d=""
       id="path4705"
       inkscape:connector-curvature="0"
       transform="scale(0.26458333)" />
    <path
       style="fill:#aa4400;stroke-width:2.85714293"
       d=""
       id="path4707"
       inkscape:connector-curvature="0"
       transform="scale(0.26458333)" />
    <path
       style="fill:#aa4400;stroke-width:2.85714293"
       d=""
       id="path4709"
       inkscape:connector-curvature="0"
       transform="scale(0.26458333)" />
    <path
       style="fill:#aa4400;stroke-width:2.85714293"
       d=""
       id="path4711"
       inkscape:connector-curvature="0"
       transform="scale(0.26458333)" />
    <path
       style="fill:#aa4400;stroke-width:2.85714293"
       d=""
       id="path4713"
       inkscape:connector-curvature="0"
       transform="scale(0.26458333)" />
    <path
       style="fill:#aa4400;stroke-width:2.85714293"
       d=""
       id="path4719"
       inkscape:connector-curvature="0"
       transform="scale(0.26458333)" />
    <path
       style="fill:#aa4400;stroke-width:2.85714293"
       d=""
       id="path4725"
       inkscape:connector-curvature="0"
       transform="scale(0.26458333)" />
    <path
       style="fill:#aa4400;stroke-width:2.85714293"
       d=""
       id="path4727"
       inkscape:connector-curvature="0"
       transform="scale(0.26458333)" />
    <path
       style="fill:#aa4400;stroke-width:2.85714293"
       d=""
       id="path4729"
       inkscape:connector-curvature="0"
       transform="scale(0.26458333)" />
    <path
       style="fill:#aa4400;stroke-width:2.85714293"
       d=""
       id="path4731"
       inkscape:connector-curvature="0"
       transform="scale(0.26458333)" />
    <path
       style="fill:#aa4400;stroke-width:2.85714293"
       d=""
       id="path4733"
       inkscape:connector-curvature="0"
       transform="scale(0.26458333)" />
    <path
       style="fill:#aa4400;stroke-width:2.85714293"
       d=""
       id="path4735"
       inkscape:connector-curvature="0"
       transform="scale(0.26458333)" />
    <path
       style="fill:#ff6600;stroke-width:2.85714293"
       d=""
       id="path4896"
       inkscape:connector-curvature="0"
       transform="scale(0.26458333)" />
    <path
       style="fill:#ffffff;stroke-width:2.85714293"
       d=""
       id="path4941"
       inkscape:connector-curvature="0"
       transform="scale(0.26458333)" />
    <path
       style="fill:#ffffff;stroke-width:2.85714293"
       d=""
       id="path4943"
       inkscape:connector-curvature="0"
       transform="scale(0.26458333)" />
    <path
       style="fill:#ffffff;stroke-width:2.85714293"
       d=""
       id="path4945"
       inkscape:connector-curvature="0"
       transform="scale(0.26458333)" />
    <path
       style="fill:#ffffff;stroke-width:2.85714293"
       d=""
       id="path4947"
       inkscape:connector-curvature="0"
       transform="scale(0.26458333)" />
    <path
       style="fill:#ffffff;stroke-width:2.85714293"
       d=""
       id="path4949"
       inkscape:connector-curvature="0"
       transform="scale(0.26458333)" />
    <path
       style="fill:#ffffff;stroke-width:2.85714293"
       d=""
       id="path4951"
       inkscape:connector-curvature="0"
       transform="scale(0.26458333)" />
    <path
       style="fill:#ffffff;stroke-width:2.85714293"
       d=""
       id="path4957"
       inkscape:connector-curvature="0"
       transform="scale(0.26458333)" />
    <path
       style="fill:#ffffff;stroke-width:2.85714293"
       d=""
       id="path4959"
       inkscape:connector-curvature="0"
       transform="scale(0.26458333)" />
    <path
       style="fill:#ffffff;stroke-width:0.75595242"
       d="m -121.82553,249.83633 c 0,-0.19019 2.72785,-3.44366 6.0619,-7.22993 8.48968,-9.64123 8.7024,-10.00799 7.16515,-12.35414 -0.68223,-1.04121 -2.46142,-2.93606 -3.95375,-4.21079 -2.27031,-1.93925 -3.35317,-2.31766 -6.6321,-2.31766 -4.59358,0 -5.44963,-0.71943 -8.32229,-6.99416 -1.2982,-2.83565 -1.89141,-5.28234 -1.73621,-7.16104 0.2253,-2.72724 0.36714,-2.86447 3.19983,-3.09606 4.12152,-0.33695 8.68388,1.6013 12.16806,5.16942 2.70987,2.77516 2.994,3.46636 3.44428,8.37886 0.42771,4.66623 0.79646,5.65988 2.86997,7.73338 1.93176,1.93177 2.62676,2.2252 3.69557,1.56031 2.17977,-1.35599 4.48098,-5.31588 5.009332,-8.62001 0.338992,-2.11995 1.40761,-4.08763 3.351953,-6.17207 l 2.854312,-3.05997 2.209062,2.91787 c 1.214985,1.60483 2.811965,3.57443 3.548848,4.37689 1.240308,1.35068 1.248333,1.56007 0.10808,2.82003 -0.67744,0.74857 -2.460676,1.55736 -3.962744,1.79734 -5.247765,0.83839 -6.023899,1.11414 -6.266482,2.22641 -0.364651,1.67194 -22.485821,24.58113 -23.735611,24.58113 -0.59244,0 -1.07716,-0.15561 -1.07716,-0.34581 z"
       id="path4969"
       inkscape:connector-curvature="0" />
    <path
       style="fill:#ffffff;stroke-width:2.85714293"
       d=""
       id="path4973"
       inkscape:connector-curvature="0"
       transform="scale(0.26458333)" />
    <path
       style="fill:#ffffff;stroke-width:2.85714293"
       d=""
       id="path4975"
       inkscape:connector-curvature="0"
       transform="scale(0.26458333)" />
    <path
       style="fill:#ffffff;stroke-width:2.85714293"
       d=""
       id="path4989"
       inkscape:connector-curvature="0"
       transform="scale(0.26458333)" />
    <path
       style="fill:#ffffff;stroke-width:2.85714293"
       d=""
       id="path4991"
       inkscape:connector-curvature="0"
       transform="scale(0.26458333)" />
    <path
       style="fill:#ffffff;stroke-width:2.85714293"
       d=""
       id="path4993"
       inkscape:connector-curvature="0"
       transform="scale(0.26458333)" />
    <path
       style="fill:#ffffff;stroke-width:2.85714293"
       d=""
       id="path4995"
       inkscape:connector-curvature="0"
       transform="scale(0.26458333)" />
    <path
       style="fill:#ffffff;stroke-width:2.85714293"
       d=""
       id="path4997"
       inkscape:connector-curvature="0"
       transform="scale(0.26458333)" />
    <path
       style="fill:#ffffff;stroke-width:2.85714293"
       d=""
       id="path5001"
       inkscape:connector-curvature="0"
       transform="scale(0.26458333)" />
    <g
       id="g5031"
       inkscape:transform-center-x="-81.642857"
       inkscape:transform-center-y="5.2916667"
       transform="translate(-265.33929,86.934522)" />
    <g
       id="g5105"
       transform="translate(-11.339282,4.5357143)">
      <path
         style="fill:#fefefe;stroke-width:0.23653041"
         d="M 44.147621,128.04464 V 67.492859 h 60.551789 60.55178 v 60.551781 60.55179 H 104.69941 44.147621 Z"
         id="path5155"
         inkscape:connector-curvature="0" />
      <path
         style="fill:#f3f3f3;stroke-width:0.23653041"
         d="m 98.313085,188.36161 c -0.715505,-0.1053 -2.099207,-0.20295 -3.074895,-0.21699 -2.199322,-0.0317 -5.879609,-0.85218 -9.989538,-2.22718 -17.771028,-5.94538 -31.99064,-19.94595 -38.145905,-37.55828 -2.279526,-6.5225 -2.836861,-10.51353 -2.836861,-20.31452 0,-9.80098 0.557335,-13.79201 2.836861,-20.31452 6.035731,-17.270298 20.011837,-31.246404 37.282138,-37.282135 6.522508,-2.279526 10.513533,-2.836861 20.314525,-2.836861 9.80098,0 13.79201,0.557335 20.31452,2.836861 17.2703,6.035731 31.2464,20.011837 37.28214,37.282135 2.27952,6.52251 2.83686,10.51354 2.83686,20.31452 0,9.80099 -0.55734,13.79202 -2.83686,20.31452 -4.88699,13.98334 -15.08432,26.00586 -28.14863,33.18686 -6.66682,3.66452 -14.20578,6.1595 -19.98682,6.61453 -3.94588,0.31058 -14.217824,0.4409 -15.847535,0.20106 z m 13.377775,-8.89077 c 9.08777,-1.17946 18.03468,-5.01199 25.5102,-10.92764 2.154,-1.70453 6.29237,-5.8429 7.99691,-7.9969 5.92883,-7.4922 9.65463,-16.19713 10.96923,-25.62847 0.50154,-3.59822 0.50154,-10.14815 0,-13.74638 -1.3146,-9.43133 -5.0404,-18.13626 -10.96923,-25.628464 -1.70454,-2.154 -5.84291,-6.292368 -7.99691,-7.996902 -7.4922,-5.928838 -16.19713,-9.654632 -25.62846,-10.969232 -3.59823,-0.501545 -10.14816,-0.501545 -13.746385,0 -9.431337,1.3146 -18.136267,5.040394 -25.628467,10.969232 -2.154,1.704534 -6.292368,5.842902 -7.996902,7.996902 -5.928838,7.492204 -9.654632,16.197134 -10.969232,25.628464 -0.501545,3.59823 -0.501545,10.14816 0,13.74638 1.3146,9.43134 5.040394,18.13627 10.969232,25.62847 1.704534,2.154 5.842902,6.29237 7.996902,7.9969 11.333473,8.96857 25.144112,12.78994 39.493112,10.92764 z M 78.562796,132.16676 c -1.747771,-0.909 -2.559423,-2.22448 -2.561192,-4.15103 -0.0014,-1.56921 0.484883,-2.53752 1.814198,-3.61223 l 0.908721,-0.73467 10.736236,-0.0661 10.736241,-0.0661 0.0633,-18.75554 0.0633,-18.755538 0.59133,-0.873589 c 0.70251,-1.037843 2.56933,-2.048167 3.78449,-2.048167 1.21518,0 3.08198,1.010324 3.78448,2.048188 l 0.59133,0.87361 0.0705,21.305156 c 0.0475,14.35417 -0.0103,21.58409 -0.1773,22.16011 -0.34754,1.19902 -1.11323,2.08753 -2.23993,2.59925 -0.90199,0.40966 -1.82601,0.43839 -14.21042,0.44189 -11.545402,0.003 -13.336791,-0.0436 -13.955294,-0.36531 z"
         id="path5153"
         inkscape:connector-curvature="0" />
      <path
         style="fill:#e7e8e7;stroke-width:0.23653041"
         d="m 99.614002,188.48225 c -0.130092,-0.0572 -1.726672,-0.20644 -3.547956,-0.33157 -5.758763,-0.39566 -11.431344,-2.11329 -18.449372,-5.58639 -6.386231,-3.16043 -10.998531,-6.46453 -15.985458,-11.45146 -4.986928,-4.98692 -8.291028,-9.59922 -11.45146,-15.98545 -3.373597,-6.81698 -5.135962,-12.55285 -5.632287,-18.33111 -0.352534,-4.10423 -0.352534,-13.39902 0,-17.50325 0.496325,-5.77826 2.25869,-11.51414 5.632287,-18.33111 3.160432,-6.386229 6.464532,-10.998529 11.45146,-15.985456 4.986927,-4.986928 9.599227,-8.291028 15.985458,-11.45146 6.816972,-3.373597 12.552849,-5.135962 18.331107,-5.632287 4.104229,-0.352534 13.399019,-0.352534 17.503249,0 5.77826,0.496325 11.51414,2.25869 18.33111,5.632287 6.38623,3.160432 10.99853,6.464532 15.98546,11.45146 4.98692,4.986927 8.29102,9.599227 11.45146,15.985456 3.37359,6.81697 5.13596,12.55285 5.63228,18.33111 0.35254,4.10423 0.35254,13.39902 0,17.50325 -0.30303,3.52787 -1.35873,8.05951 -2.79058,11.97868 -1.20583,3.3005 -4.5494,9.94941 -6.40599,12.73875 -4.58258,6.88483 -10.60148,12.90372 -17.48631,17.4863 -2.78934,1.8566 -9.43824,5.20017 -12.73875,6.406 -3.68074,1.34474 -8.47488,2.49118 -11.50562,2.75137 -2.90116,0.24907 -13.91411,0.49909 -14.310088,0.32488 z m 9.952328,-8.65234 c 18.13558,-1.76477 33.92005,-12.68352 41.86555,-28.96008 4.16318,-8.52838 5.95957,-18.37361 5.05279,-27.69211 -1.99974,-20.55034 -15.80686,-37.96385 -35.22814,-44.429659 -10.85101,-3.612563 -22.263236,-3.612563 -33.114253,0 -19.421275,6.465809 -33.228392,23.879319 -35.228135,44.429659 -1.485271,15.26337 4.085867,30.72242 15.007818,41.64437 10.919807,10.91981 26.383992,16.4928 41.64437,15.00782 z M 78.799326,132.09029 c -1.746723,-0.8087 -2.7201,-2.25642 -2.7201,-4.04565 0,-1.78922 0.973377,-3.23694 2.7201,-4.04565 0.874226,-0.40475 1.723484,-0.43843 11.176062,-0.44323 l 10.229942,-0.005 v -18.17755 c 0,-13.103411 0.0761,-18.401982 0.27271,-18.981565 0.67247,-1.982644 2.1507,-3.051059 4.22137,-3.051059 2.07066,0 3.54889,1.068415 4.22137,3.051059 0.37765,1.113442 0.38603,41.590285 0.009,42.948775 -0.33473,1.20571 -1.72896,2.59994 -2.93467,2.93467 -0.63331,0.17582 -5.07673,0.25992 -13.595168,0.25731 -11.814127,-0.004 -12.7172,-0.033 -13.600499,-0.44192 z"
         id="path5151"
         inkscape:connector-curvature="0" />
      <path
         style="fill:#e0e0df;stroke-width:0.23653041"
         d="m 97.366963,188.31566 c -10.62298,-0.88506 -21.940866,-5.63574 -31.167301,-13.08248 -2.507015,-2.02344 -6.665354,-6.18178 -8.688789,-8.68879 -6.251208,-7.74518 -10.94876,-17.73167 -12.49121,-26.55496 -1.149613,-6.57614 -1.149613,-17.31343 0,-23.88957 1.54245,-8.82329 6.240002,-18.809777 12.49121,-26.55496 2.023435,-2.507015 6.181774,-6.665354 8.688789,-8.688789 7.745183,-6.251208 17.731669,-10.94876 26.554958,-12.49121 6.576144,-1.149613 17.31343,-1.149613 23.88957,0 8.82329,1.54245 18.80978,6.240002 26.55496,12.49121 2.50702,2.023435 6.66535,6.181774 8.68879,8.688789 6.25121,7.745183 10.94876,17.73167 12.49121,26.55496 1.14961,6.57614 1.14961,17.31343 0,23.88957 -1.54245,8.82329 -6.24,18.80978 -12.49121,26.55496 -2.02344,2.50701 -6.18177,6.66535 -8.68879,8.68879 -7.74518,6.25121 -17.73167,10.94876 -26.55496,12.49121 -4.75481,0.83121 -13.26445,1.09222 -19.277227,0.59127 z m 13.884047,-8.59674 c 9.43352,-1.22478 18.44884,-5.01966 25.92167,-10.91138 2.19153,-1.72784 6.56178,-6.0981 8.28962,-8.28962 11.1277,-14.11395 14.26438,-32.73431 8.37891,-49.74 -1.77263,-5.12188 -4.89341,-10.785683 -8.37891,-15.206553 -1.72784,-2.191522 -6.09809,-6.56178 -8.28962,-8.289616 -9.33911,-7.36313 -20.60348,-11.273797 -32.47327,-11.273797 -11.869802,0 -23.134171,3.910667 -32.473281,11.273797 -2.191522,1.727836 -6.56178,6.098094 -8.289616,8.289616 -12.463456,15.808173 -14.816783,37.295723 -6.056315,55.298463 1.497669,3.0777 3.925671,6.94566 6.056315,9.64809 1.727836,2.19152 6.098094,6.56178 8.289616,8.28962 7.354703,5.79858 16.399844,9.64402 25.613895,10.88944 3.396906,0.45915 9.960846,0.46989 13.410986,0.022 z M 79.324715,132.20771 c -1.345071,-0.36759 -2.203818,-1.10072 -2.798437,-2.38909 -0.812974,-1.76148 -0.333167,-3.87001 1.168099,-5.13324 1.222098,-1.02833 2.42477,-1.13481 12.816639,-1.13481 h 9.677894 l 0.0673,-18.50851 c 0.0741,-20.366701 -0.0196,-19.102053 1.52454,-20.563096 1.20992,-1.144761 3.07712,-1.474003 4.64475,-0.819005 0.91838,0.383724 2.21848,1.805819 2.46886,2.700538 0.0994,0.355367 0.18082,10.119164 0.18082,21.697323 v 21.05121 l -0.58878,1.02845 c -0.36271,0.63355 -0.99846,1.2693 -1.65572,1.65571 l -1.06693,0.62727 -12.654374,0.0481 c -9.800971,0.0372 -12.90925,-0.0216 -13.784701,-0.26083 z"
         id="path5149"
         inkscape:connector-curvature="0" />
      <path
         style="fill:#d7d7d7;stroke-width:0.23653041"
         d="m 99.850533,188.48654 c -0.130092,-0.0553 -1.673453,-0.21064 -3.429691,-0.34532 -9.321382,-0.71482 -21.329967,-5.79189 -29.721694,-12.56593 -2.718388,-2.19437 -6.706651,-6.14772 -8.994041,-8.91532 -5.691179,-6.88597 -10.124799,-15.80547 -12.257764,-24.66003 -0.820966,-3.40807 -1.180977,-7.66222 -1.180977,-13.9553 0,-6.29307 0.360011,-10.54722 1.180977,-13.95529 2.132965,-8.85456 6.566585,-17.774066 12.257764,-24.660036 2.28739,-2.767599 6.275653,-6.72095 8.994041,-8.915312 8.286932,-6.68945 20.066045,-11.707345 29.603428,-12.611042 3.951894,-0.374454 12.841764,-0.374454 16.793664,0 9.53738,0.903697 21.31649,5.921592 29.60342,12.611042 2.71839,2.194362 6.70665,6.147713 8.99405,8.915312 7.09564,8.58528 12.21178,20.344446 13.14738,30.218496 0.37445,3.9519 0.37445,12.84177 0,16.79366 -0.9356,9.87406 -6.05174,21.63322 -13.14738,30.2185 -2.2874,2.7676 -6.27566,6.72095 -8.99405,8.91532 -8.10944,6.54618 -20.11947,11.72029 -29.20072,12.58014 -2.6347,0.24946 -13.23509,0.50663 -13.648407,0.33111 z m 12.435067,-8.87911 c 18.47014,-2.71175 33.96648,-15.00223 40.92479,-32.45833 4.73837,-11.88701 4.73837,-26.3219 0,-38.20891 -2.61767,-6.56687 -6.05903,-11.912119 -10.90119,-16.932118 -5.44806,-5.648161 -11.32686,-9.61609 -18.45083,-12.453496 -10.12418,-4.032361 -22.31198,-4.697524 -32.894945,-1.795278 -15.878338,4.354436 -28.644304,15.800998 -34.775003,31.180892 -4.738371,11.88701 -4.738371,26.3219 0,38.20891 2.617673,6.56687 6.059034,11.91212 10.90119,16.93212 3.039164,3.15078 5.324233,5.07586 8.710802,7.33851 6.327373,4.22745 13.591761,7.0368 21.156032,8.18164 4.156884,0.62913 11.066684,0.63187 15.329154,0.006 z m -33.900782,-47.7947 c -2.134334,-1.12673 -2.87439,-4.06533 -1.533935,-6.09089 1.229514,-1.85792 0.856853,-1.80172 12.828842,-1.93474 l 10.643865,-0.11827 0.11827,-18.8227 0.11826,-18.822697 0.68214,-0.894203 c 0.78029,-1.022881 2.24904,-1.778444 3.45715,-1.778444 1.20813,0 2.67687,0.755574 3.45715,1.778489 l 0.68213,0.894247 0.0685,21.187958 c 0.0377,11.65338 0.006,21.53616 -0.0708,21.96174 -0.17309,0.96127 -1.39471,2.38483 -2.41088,2.80941 -0.61242,0.25588 -3.39396,0.31748 -13.958985,0.30911 -12.684608,-0.0101 -13.228446,-0.0285 -14.081737,-0.47901 z"
         id="path5147"
         inkscape:connector-curvature="0" />
      <path
         style="fill:#c7c8c7;stroke-width:0.23653041"
         d="m 96.921409,188.22154 c -9.78765,-0.88647 -20.46604,-5.2746 -29.420477,-12.08992 -3.105668,-2.36376 -8.524741,-7.78284 -10.8885,-10.8885 -5.272452,-6.92731 -8.850563,-14.3097 -10.903344,-22.49588 -2.063671,-8.22961 -2.063671,-21.17558 0,-29.4052 2.726557,-10.87309 8.036216,-20.206941 16.058494,-28.22922 8.022279,-8.022278 17.356127,-13.331937 28.229224,-16.058494 8.229612,-2.063671 21.175584,-2.063671 29.405204,0 10.87309,2.726557 20.20694,8.036216 28.22922,16.058494 8.02228,8.022279 13.33194,17.35613 16.05849,28.22922 2.06367,8.22962 2.06367,21.17559 0,29.4052 -2.72655,10.8731 -8.03621,20.20695 -16.05849,28.22923 -8.02228,8.02228 -17.35613,13.33193 -28.22922,16.05849 -5.82685,1.46115 -14.43327,1.91542 -22.480601,1.18658 z m 15.110441,-8.51409 c 20.9683,-2.95161 38.2338,-18.49854 43.27121,-38.96409 1.15479,-4.69159 1.49321,-7.56961 1.49321,-12.69872 0,-5.1291 -0.33842,-8.00712 -1.49321,-12.69872 -4.56673,-18.553273 -19.35166,-33.338203 -37.90493,-37.904929 -4.6916,-1.154794 -7.56962,-1.493214 -12.69872,-1.493214 -5.129107,0 -8.007131,0.33842 -12.698723,1.493214 -18.553278,4.566726 -33.338208,19.351656 -37.904934,37.904929 -1.154794,4.6916 -1.493214,7.56962 -1.493214,12.69872 0,5.12911 0.33842,8.00713 1.493214,12.69872 6.347654,25.78868 31.476461,42.68869 57.936097,38.96409 z M 78.917591,132.0371 c -0.773201,-0.30741 -1.842214,-1.33215 -2.295447,-2.20038 -0.435334,-0.83394 -0.471802,-2.68892 -0.06825,-3.47148 0.36815,-0.7139 1.388573,-1.82356 2.0089,-2.18457 0.332029,-0.19323 3.646244,-0.31057 11.116929,-0.39357 l 10.643867,-0.11827 0.11827,-18.6859 0.11826,-18.685903 0.54412,-0.875067 c 1.74007,-2.79845 5.92481,-2.603296 7.351,0.342812 0.49977,1.032401 0.50171,1.118001 0.50171,22.142948 0,18.9903 -0.0384,21.18244 -0.38332,21.86352 -0.54436,1.07501 -1.02784,1.57072 -2.03169,2.08306 -0.83093,0.42409 -1.57255,0.44709 -13.955296,0.4329 -8.07411,-0.009 -13.303975,-0.10495 -13.669055,-0.2501 z"
         id="path5145"
         inkscape:connector-curvature="0" />
      <path
         style="fill:#bfc0bf;stroke-width:0.23653041"
         d="m 97.085232,188.22593 c -3.551069,-0.33684 -8.226778,-1.3729 -11.899585,-2.63675 -17.836316,-6.13769 -31.706384,-19.94754 -37.95903,-37.79425 -2.709359,-7.73322 -3.640577,-16.92453 -2.726029,-26.90642 1.725217,-18.82999 13.894393,-36.844397 31.223843,-46.221626 11.047526,-5.977986 22.249987,-8.092857 36.131109,-6.821058 18.82999,1.725217 36.8444,13.894393 46.22163,31.223843 5.97798,11.047531 8.09285,22.249991 6.82105,36.131111 -1.72521,18.82998 -13.89439,36.8444 -31.22384,46.22162 -11.07558,5.99317 -22.58005,8.13235 -36.589148,6.80353 z M 112.85971,179.626 c 11.33386,-1.88564 20.75455,-6.69872 28.73844,-14.68261 8.12636,-8.12636 12.90237,-17.61809 14.81753,-29.44804 0.58468,-3.61158 0.58468,-11.28983 0,-14.90141 -1.91516,-11.82995 -6.69117,-21.321678 -14.81753,-29.44804 -8.12636,-8.126362 -17.61809,-12.902367 -29.44804,-14.817531 -3.61158,-0.584684 -11.28983,-0.584684 -14.901412,0 -11.829945,1.915164 -21.321674,6.691169 -29.448036,14.817531 -8.126362,8.126362 -12.902367,17.61809 -14.817531,29.44804 -0.584684,3.61158 -0.584684,11.28983 0,14.90141 1.915164,11.82995 6.691169,21.32168 14.817531,29.44804 8.880009,8.88001 20.058145,14.0578 32.877728,15.2292 2.45525,0.22436 9.42807,-0.0885 12.18132,-0.54659 z M 78.799326,131.85824 c -1.659996,-0.77158 -2.483569,-2.0362 -2.483569,-3.8136 0,-1.7786 0.825583,-3.04528 2.483569,-3.81049 0.873585,-0.40319 1.73948,-0.43706 11.294327,-0.44186 l 10.348207,-0.005 v -18.45697 c 0,-20.326211 -0.0695,-19.364422 1.49911,-20.741691 1.71087,-1.502163 3.80601,-1.502163 5.51687,0 1.57753,1.385089 1.49911,0.167881 1.49911,23.268841 0,20.90021 -0.002,20.98827 -0.50171,22.02054 -0.30214,0.62413 -0.88325,1.28894 -1.46084,1.67125 l -0.95912,0.63486 -13.144915,0.057 c -12.384671,0.0537 -13.199636,0.0316 -14.091039,-0.38273 z"
         id="path5143"
         inkscape:connector-curvature="0" />
      <path
         style="fill:#b8b8b7;stroke-width:0.23653041"
         d="M 97.485228,188.2392 C 78.306243,186.41216 60.154878,173.90133 50.880394,156.11681 45.27403,145.36619 43.26962,134.40195 44.493101,121.17793 46.826409,95.958362 66.459833,74.179499 91.813712,68.686372 c 5.187064,-1.12382 13.099738,-1.463536 19.752408,-0.848033 25.21957,2.333308 46.99843,21.966732 52.49156,47.320611 1.12382,5.18706 1.46353,13.09974 0.84803,19.75241 -2.33331,25.21957 -21.96673,46.99843 -47.32061,52.49156 -5.09652,1.1042 -13.58158,1.45723 -20.099872,0.83628 z m 15.611012,-8.61593 c 20.59284,-3.47287 37.07627,-18.50098 42.17477,-38.45119 1.26259,-4.94042 1.56792,-7.49686 1.56792,-13.12744 0,-7.14577 -0.94983,-12.47645 -3.31994,-18.63227 -6.82006,-17.713599 -22.0999,-30.00438 -41.13235,-33.085982 -3.6313,-0.587956 -11.74317,-0.587956 -15.374472,0 -23.104475,3.740918 -40.2901,20.926543 -44.031018,44.031022 -0.587956,3.6313 -0.587956,11.74317 0,15.37447 3.939493,24.33091 23.035554,42.21181 47.46071,44.44058 2.56665,0.23421 9.89504,-0.0838 12.65438,-0.54919 z M 78.771867,131.85376 c -0.535469,-0.24541 -1.28054,-0.84864 -1.655713,-1.34052 -0.593918,-0.77867 -0.682132,-1.09791 -0.682132,-2.4686 0,-1.37068 0.08821,-1.68992 0.682132,-2.46859 1.359591,-1.78251 1.326096,-1.77791 12.977499,-1.78376 l 10.348207,-0.005 v -18.33871 c 0,-16.017323 0.0463,-18.449609 0.36608,-19.214865 0.43257,-1.035267 1.16256,-1.864308 2.04661,-2.324276 0.83277,-0.433289 2.87056,-0.425634 3.72067,0.01398 0.91903,0.47525 1.84537,1.629471 2.15096,2.680122 0.1761,0.605437 0.23289,7.347143 0.1837,21.809269 l -0.0712,20.93294 -0.54412,0.87507 c -0.29926,0.48128 -0.93789,1.11992 -1.41918,1.41918 l -0.87507,0.54412 -13.127435,0.058 c -12.431693,0.0549 -13.179036,0.0344 -14.101018,-0.38818 z"
         id="path5141"
         inkscape:connector-curvature="0" />
      <path
         style="fill:#a4a5a4;stroke-width:0.23653041"
         d="M 97.477648,188.23016 C 86.80566,187.16919 75.96054,182.63951 66.736275,175.3904 c -2.134456,-1.67741 -7.705217,-7.24817 -9.382629,-9.38263 -7.391077,-9.40491 -11.790204,-20.06746 -12.857769,-31.16451 -1.629656,-16.9398 2.620169,-31.73471 12.857769,-44.761747 1.677412,-2.134456 7.248173,-7.705217 9.382629,-9.382629 13.027033,-10.2376 27.821951,-14.487425 44.761755,-12.857769 11.09704,1.067565 21.75959,5.466692 31.16451,12.857769 2.13445,1.677412 7.70521,7.248173 9.38263,9.382629 10.2376,13.027037 14.48742,27.821947 12.85777,44.761747 -1.06757,11.09705 -5.4667,21.7596 -12.85777,31.16451 -1.67742,2.13446 -7.24818,7.70522 -9.38263,9.38263 -7.55192,5.93486 -15.74984,9.86233 -24.84275,11.9017 -5.45567,1.22361 -13.66295,1.60208 -20.342142,0.93806 z m 12.543692,-8.14772 c 12.03532,-1.30909 22.55246,-6.22734 31.07115,-14.53016 1.47813,-1.44067 3.37625,-3.47091 4.21804,-4.51164 12.62847,-15.61291 15.23367,-37.00397 6.7351,-55.30117 C 148.99082,99.162554 143.43659,92.077272 137.6954,87.433518 121.74766,74.534227 99.809372,72.108202 81.401161,81.208275 c -8.803338,4.351918 -16.609862,11.59844 -21.712958,20.155385 -9.690104,16.24849 -9.690104,37.11347 0,53.36197 2.951444,4.94902 7.658374,10.40612 12.015211,13.93014 7.783473,6.29565 17.357637,10.29183 27.319262,11.40287 2.533384,0.28255 8.501054,0.29546 10.998664,0.0238 z M 79.399295,132.02448 c -2.757812,-0.79125 -3.896247,-3.90851 -2.305356,-6.3125 1.19968,-1.81284 1.097804,-1.798 12.874594,-1.87502 l 10.459617,-0.0684 0.066,-18.6175 c 0.0737,-20.803257 -0.0439,-19.415642 1.76217,-20.793172 0.75057,-0.57249 1.08309,-0.662686 2.4431,-0.662686 1.36,0 1.69252,0.0902 2.44309,0.662686 1.81541,1.384677 1.6885,-0.268204 1.76155,22.941962 0.0466,14.80034 -0.0109,21.04953 -0.20013,21.75222 -0.33681,1.25081 -1.71037,2.64342 -2.94546,2.98631 -1.21849,0.33828 -25.17573,0.32566 -26.359165,-0.0139 z"
         id="path5139"
         inkscape:connector-curvature="0" />
      <path
         style="fill:#969796;stroke-width:0.23653041"
         d="m 98.667881,188.3345 c -7.169403,-0.6668 -13.794676,-2.55952 -20.617126,-5.88993 -12.090583,-5.90209 -21.675449,-15.45691 -27.640359,-27.55372 -4.303491,-8.72747 -6.261158,-17.12143 -6.261158,-26.84621 0,-9.61698 1.940417,-18.02469 6.150246,-26.64865 5.902082,-12.09058 15.456905,-21.675446 27.55372,-27.640356 8.727466,-4.303491 17.121429,-6.261158 26.846206,-6.261158 9.61698,0 18.02469,1.940417 26.64865,6.150246 12.09058,5.902082 21.67545,15.456905 27.64035,27.553718 4.3035,8.72747 6.26117,17.12143 6.26117,26.8462 0,9.72478 -1.95767,18.11874 -6.26117,26.84621 -7.79246,15.80309 -21.88424,27.28934 -39.03273,31.81571 -6.33805,1.67293 -14.2767,2.28003 -21.287799,1.62794 z m 12.819659,-8.37464 c 5.42712,-0.69606 10.63089,-2.23681 15.68002,-4.64259 5.48761,-2.6147 10.23928,-5.97121 14.53627,-10.2682 4.29699,-4.29699 7.6535,-9.04866 10.26821,-14.53627 3.44698,-7.23436 5.00059,-14.21487 5.00059,-22.46816 0,-8.25328 -1.55361,-15.2338 -5.00059,-22.46815 -2.61471,-5.48761 -5.97122,-10.239283 -10.26821,-14.536274 -4.29699,-4.29699 -9.04866,-7.653496 -14.53627,-10.268202 -7.23435,-3.446983 -14.21487,-5.000591 -22.46815,-5.000591 -8.253288,0 -15.233804,1.553608 -22.468158,5.000591 -5.487614,2.614706 -10.239283,5.971212 -14.536274,10.268202 -4.29699,4.296991 -7.653496,9.048664 -10.268202,14.536274 -3.446983,7.23435 -5.000591,14.21487 -5.000591,22.46815 0,8.25329 1.553608,15.2338 5.000591,22.46816 2.614706,5.48761 5.971212,10.23928 10.268202,14.53627 4.296991,4.29699 9.04866,7.6535 14.536274,10.2682 4.919596,2.34406 10.196715,3.93028 15.372242,4.62065 3.407276,0.4545 10.424926,0.46559 13.884046,0.0219 z M 78.799326,131.79394 c -2.481497,-1.38293 -3.176887,-4.32951 -1.478313,-6.26408 1.361987,-1.55122 0.991122,-1.50623 12.417925,-1.50623 7.751565,0 10.443482,-0.0717 10.655612,-0.28384 0.21585,-0.21585 0.28477,-4.70609 0.28773,-18.74503 l 0.004,-18.461203 0.52831,-0.928377 c 0.62793,-1.103476 2.21687,-2.028253 3.48492,-2.028253 1.26672,0 2.85659,0.924772 3.48699,2.028253 l 0.53036,0.928377 -0.0573,21.566133 c -0.0568,21.36788 -0.0618,21.57213 -0.54498,22.21924 -0.26822,0.35921 -0.78153,0.87257 -1.14069,1.14079 -0.63962,0.47766 -0.93068,0.48881 -14.177214,0.54277 -9.597049,0.0391 -13.661556,-0.0215 -13.99725,-0.20855 z"
         id="path5137"
         inkscape:connector-curvature="0" />
      <path
         style="fill:#878886;stroke-width:0.23653041"
         d="M 98.904411,188.3345 C 73.840849,186.00342 52.504005,167.89838 46.164714,143.58307 39.326947,117.35577 50.28979,90.225502 73.391162,76.204471 87.375798,67.716706 104.15674,65.317501 120.22984,69.50785 c 20.86151,5.438716 37.56664,22.141564 43.00426,42.99837 6.8692,26.34785 -4.25598,53.6475 -27.53475,67.56647 -10.98176,6.56627 -23.88186,9.46282 -36.794939,8.26181 z m 13.127439,-8.39444 c 21.01856,-2.92552 38.44404,-18.62436 43.50774,-39.1967 1.14788,-4.66348 1.48765,-7.56385 1.48765,-12.69872 0,-5.13486 -0.33977,-8.03523 -1.48765,-12.69872 -4.59336,-18.66149 -19.47997,-33.548097 -38.14146,-38.141459 -4.66349,-1.147875 -7.56386,-1.487654 -12.69872,-1.487654 -5.134866,0 -8.035238,0.339779 -12.698723,1.487654 -18.661495,4.593362 -33.548102,19.479969 -38.141464,38.141459 -1.147875,4.66349 -1.487654,7.56386 -1.487654,12.69872 0,5.13487 0.339779,8.03524 1.487654,12.69872 5.357087,21.76429 24.345028,37.81364 46.819167,39.57337 3.09928,0.24268 8.09435,0.077 11.35346,-0.37667 z M 78.917712,131.79993 c -2.638712,-1.0522 -3.270693,-4.77715 -1.146113,-6.75529 0.305065,-0.28404 0.854301,-0.62997 1.220523,-0.76873 0.434263,-0.16453 4.222742,-0.25228 10.892225,-0.25228 7.638469,0 10.298193,-0.0718 10.510203,-0.28384 0.21587,-0.21587 0.28384,-4.66397 0.28384,-18.57523 0,-20.121832 -0.0664,-19.201609 1.48308,-20.562052 2.01922,-1.772889 5.34531,-0.902449 6.30792,1.650784 0.17028,0.451669 0.24978,7.451529 0.24714,21.760798 l -0.004,21.09494 -0.53312,0.9413 c -0.29892,0.52778 -0.94664,1.17551 -1.47442,1.47443 l -0.94132,0.53312 -13.127435,-0.0111 c -8.142065,-0.007 -13.351957,-0.10063 -13.718643,-0.24685 z"
         id="path5135"
         inkscape:connector-curvature="0" />
      <path
         style="fill:#80817f;stroke-width:0.23653041"
         d="m 99.100417,188.3553 c -14.153228,-1.37615 -27.183426,-7.51521 -37.189939,-17.52173 -9.386466,-9.38646 -15.110132,-20.86532 -17.207795,-34.51036 -0.585798,-3.81055 -0.585798,-12.74659 0,-16.55713 2.097663,-13.64504 7.821329,-25.123899 17.207795,-34.510364 9.386465,-9.386466 20.865322,-15.110132 34.510364,-17.207795 3.810548,-0.585798 12.746588,-0.585798 16.557128,0 13.64504,2.097663 25.1239,7.821329 34.51036,17.207795 9.38647,9.386465 15.11014,20.865324 17.2078,34.510364 0.5858,3.81054 0.5858,12.74658 0,16.55713 -2.09766,13.64504 -7.82133,25.1239 -17.2078,34.51036 -9.32287,9.32288 -20.93804,15.13986 -34.27383,17.16465 -2.95552,0.44875 -11.06207,0.65384 -14.114083,0.35708 z m 13.089983,-8.39845 c 17.01213,-2.49156 31.56339,-12.98422 39.35392,-28.37743 3.79849,-7.50539 5.51922,-14.84283 5.51922,-23.53478 0,-5.003 -0.357,-8.13091 -1.4308,-12.53611 -4.573,-18.76054 -19.63972,-33.827373 -38.39722,-38.397504 -4.40681,-1.073688 -7.53381,-1.430514 -12.53611,-1.430514 -8.267338,0 -15.113829,1.509148 -22.352128,4.927001 -15.964186,7.538131 -26.907917,22.366007 -29.599303,40.104687 -0.563899,3.71661 -0.563899,10.94828 0,14.66489 1.822666,12.01302 7.287293,22.56786 15.908448,30.7269 8.902243,8.42506 19.643455,13.15422 32.495023,14.30696 2.04515,0.18345 8.49841,-0.082 11.03895,-0.4541 z M 78.56979,131.52597 c -1.4047,-0.79559 -2.017503,-1.85302 -2.017503,-3.48133 0,-1.5836 0.592376,-2.65282 1.893048,-3.4169 0.792346,-0.46546 1.273718,-0.49081 11.47092,-0.60411 l 10.643865,-0.11827 0.11827,-18.80417 c 0.0896,-14.24318 0.18868,-18.92706 0.4086,-19.310844 0.46993,-0.820117 1.67212,-1.709185 2.67705,-1.979785 1.76015,-0.473959 3.92603,0.596617 4.63375,2.290427 0.26428,0.632508 0.32263,4.574349 0.32263,21.793772 v 21.0216 l -0.54467,1.02998 c -0.37228,0.704 -0.87065,1.20237 -1.57464,1.57465 l -1.02999,0.54467 -13.031099,-0.004 -13.031104,-0.004 z"
         id="path5133"
         inkscape:connector-curvature="0" />
      <path
         style="fill:#7f807e;stroke-width:0.23653041"
         d="m 99.054911,188.35193 c -11.759474,-1.13782 -23.415406,-5.91929 -32.555166,-13.35473 -2.688522,-2.18719 -6.944942,-6.47778 -9.089229,-9.1622 -5.421346,-6.78695 -9.864227,-15.96742 -11.706666,-24.18986 -1.15732,-5.16489 -1.41933,-7.67556 -1.41933,-13.6005 0,-5.92493 0.26201,-8.4356 1.41933,-13.60049 1.882611,-8.40172 6.441443,-17.713639 12.043003,-24.599167 2.187184,-2.688522 6.477774,-6.944942 9.162195,-9.089229 6.786952,-5.421346 15.967421,-9.864227 24.189859,-11.706666 5.164893,-1.15732 7.675564,-1.41933 13.600503,-1.41933 5.92493,0 8.4356,0.26201 13.60049,1.41933 6.18209,1.385248 14.26558,4.839557 19.57752,8.366038 9.21297,6.116289 16.28882,14.163752 21.1198,24.019844 2.95924,6.03742 4.64021,11.44442 5.69891,18.33111 0.5858,3.81054 0.5858,12.74658 0,16.55713 -1.0587,6.88669 -2.73967,12.29369 -5.69891,18.33111 -3.15792,6.44272 -6.67786,11.34388 -11.75976,16.37423 -4.98944,4.93883 -9.55971,8.18419 -15.92838,11.31077 -5.96565,2.92872 -11.48821,4.65585 -18.09458,5.6589 -2.97071,0.45105 -11.06408,0.65322 -14.159589,0.35371 z m 13.213469,-8.39773 c 5.58862,-0.83914 10.39173,-2.33883 15.49274,-4.83736 15.68181,-7.68114 26.20691,-22.15773 28.89249,-39.73975 0.56863,-3.7227 0.56863,-10.9422 0,-14.66489 -1.73966,-11.38927 -6.49696,-21.072396 -14.33619,-29.18024 -6.80664,-7.039864 -15.64773,-12.120749 -25.10091,-14.425231 -4.41392,-1.076018 -7.52408,-1.431776 -12.5171,-1.431776 -8.581086,0 -15.483313,1.585509 -23.061719,5.297501 -15.681805,7.681131 -26.206908,22.157726 -28.892492,39.739746 -0.568626,3.72269 -0.568626,10.94219 0,14.66489 1.739667,11.38927 6.496967,21.07239 14.336198,29.18024 6.806633,7.03986 15.647726,12.12075 25.100902,14.42523 2.276003,0.55484 6.171661,1.19108 8.732621,1.42622 2.05341,0.18854 8.8946,-0.0854 11.35346,-0.45458 z M 78.775926,131.61497 c -1.495965,-0.67939 -2.105374,-1.71283 -2.105374,-3.57033 0,-1.23104 0.109779,-1.69136 0.550842,-2.30974 1.150675,-1.61327 0.90597,-1.58028 12.694861,-1.71127 l 10.643865,-0.11827 0.11827,-18.8227 0.11826,-18.822697 0.66269,-0.868706 c 0.85483,-1.120588 1.90897,-1.660981 3.24007,-1.660981 1.33111,0 2.38525,0.540403 3.24006,1.661024 l 0.66269,0.868749 0.0686,20.951431 c 0.0377,11.52329 0.006,21.29963 -0.0708,21.72521 -0.17312,0.96128 -1.39474,2.38483 -2.4109,2.80941 -0.61104,0.25531 -3.34643,0.31852 -13.60419,0.31437 -12.009654,-0.005 -12.902024,-0.0337 -13.808894,-0.4455 z"
         id="path5131"
         inkscape:connector-curvature="0" />
      <path
         style="fill:#767775;stroke-width:0.23653041"
         d="M 99.140941,188.32953 C 78.604382,186.37144 60.473127,174.1464 50.987117,155.86169 45.71785,145.70495 43.369579,133.99652 44.388118,122.95924 46.322395,101.99868 58.404001,83.918829 76.882356,74.332355 c 10.156743,-5.269267 21.865171,-7.617538 32.902454,-6.598999 16.60345,1.532195 31.22889,9.257546 41.76607,22.061391 9.88074,12.006193 14.86889,28.066053 13.45981,43.335303 -1.53219,16.60344 -9.25754,31.22889 -22.06139,41.76607 -12.1095,9.96577 -28.25435,14.91642 -43.808359,13.43341 z m 10.289069,-8.02512 c 12.46904,-1.13852 24.12908,-6.72187 32.88757,-15.74804 5.57673,-5.74716 9.65204,-12.42427 12.12066,-19.85881 8.29531,-24.98239 -2.98111,-52.034138 -26.55045,-63.693645 -20.38392,-10.08371 -44.929264,-5.833544 -60.806561,10.529001 -4.084486,4.209316 -6.822867,8.085361 -9.434603,13.354224 -10.074558,20.32421 -5.810518,44.90903 10.541052,60.77568 4.209316,4.08449 8.085361,6.82287 13.354225,9.4346 8.583582,4.25482 18.348516,6.07803 27.888107,5.20699 z M 78.775926,131.61497 c -1.495965,-0.67939 -2.105374,-1.71283 -2.105374,-3.57033 0,-1.23104 0.109779,-1.69136 0.550842,-2.30974 1.150675,-1.61327 0.90597,-1.58028 12.694861,-1.71127 l 10.643865,-0.11827 0.11827,-18.6859 c 0.11486,-18.14838 0.13187,-18.709006 0.59133,-19.489035 0.90681,-1.539528 2.59967,-2.290878 4.29837,-1.90776 1.21447,0.273908 2.00005,0.91085 2.62014,2.124399 l 0.53219,1.041525 v 20.890421 c 0,17.21251 -0.0573,21.02442 -0.32566,21.65155 -0.39384,0.92045 -1.44458,1.94117 -2.3507,2.28352 -0.44123,0.16671 -4.98949,0.24983 -13.482236,0.24639 -11.987228,-0.005 -12.879099,-0.0337 -13.785898,-0.4455 z"
         id="path5129"
         inkscape:connector-curvature="0" />
      <path
         style="fill:#666866;stroke-width:0.23653041"
         d="m 100.44186,188.45515 c -10.35552,-0.91131 -20.286394,-4.23387 -28.383651,-9.49629 -3.849577,-2.50185 -6.52707,-4.69021 -10.05494,-8.21808 -9.618697,-9.6187 -15.150623,-20.70344 -17.294398,-34.6541 -0.582739,-3.79219 -0.582739,-12.29188 0,-16.08407 1.709149,-11.12233 5.396137,-19.94186 12.063498,-28.85671 2.161205,-2.889722 8.138571,-8.867088 11.028293,-11.028293 8.914855,-6.667361 17.734381,-10.354349 28.85671,-12.063498 3.792188,-0.582739 12.291878,-0.582739 16.084068,0 11.12233,1.709149 19.94186,5.396137 28.85671,12.063498 2.88972,2.161205 8.86709,8.138571 11.02829,11.028293 6.66736,8.91485 10.35435,17.73438 12.0635,28.85671 0.58274,3.79219 0.58274,12.29188 0,16.08407 -1.70915,11.12233 -5.39614,19.94185 -12.0635,28.85671 -2.1612,2.88972 -8.13857,8.86709 -11.02829,11.02829 -8.77269,6.56104 -17.48517,10.25483 -28.14712,11.93339 -2.84958,0.44863 -10.49059,0.77172 -13.00917,0.55008 z m 9.25876,-8.13952 c 26.92113,-2.62412 47.50854,-25.27529 47.50854,-52.27099 0,-28.920825 -23.58893,-52.509747 -52.50975,-52.509747 -28.920833,0 -52.509755,23.588922 -52.509755,52.509747 0,30.87905 26.827121,55.26188 57.510965,52.27099 z M 79.370209,131.8396 c -2.414124,-0.7316 -3.532816,-3.52295 -2.294738,-5.72581 0.287751,-0.51199 0.899774,-1.16511 1.36005,-1.45139 0.821894,-0.5112 1.027282,-0.52262 11.480734,-0.63877 l 10.643865,-0.11827 0.11827,-18.6859 c 0.10924,-17.2604 0.15004,-18.74403 0.53476,-19.447844 1.09234,-1.99834 3.9197,-2.620806 5.78074,-1.272676 1.81815,1.317056 1.72653,0.07887 1.72653,23.33474 0,18.09233 -0.0458,20.80888 -0.36381,21.56995 -0.49008,1.17293 -0.99439,1.70041 -2.11976,2.21718 -0.88203,0.40503 -1.80325,0.43344 -13.600495,0.41933 -6.959907,-0.008 -12.929672,-0.0986 -13.266146,-0.20054 z"
         id="path5127"
         inkscape:connector-curvature="0" />
      <path
         style="fill:#565755;stroke-width:0.23653041"
         d="m 99.850533,188.37175 c -14.791676,-1.45868 -27.712594,-7.47166 -37.859582,-17.61865 -8.628052,-8.62805 -14.425625,-19.55913 -16.629906,-31.355 -0.99569,-5.32827 -1.088759,-6.29878 -1.088759,-11.35346 0,-5.05467 0.09307,-6.02518 1.088759,-11.35346 2.204281,-11.79586 8.001854,-22.72694 16.629906,-31.354991 8.628051,-8.628052 19.559134,-14.425625 31.354995,-16.629906 5.328276,-0.99569 6.298786,-1.088759 11.353464,-1.088759 5.05467,0 6.02518,0.09307 11.35346,1.088759 11.79586,2.204281 22.72694,8.001854 31.35499,16.629906 8.62805,8.628051 14.42563,19.559131 16.62991,31.354991 0.99569,5.32828 1.08876,6.29879 1.08876,11.35346 0,5.05468 -0.0931,6.02519 -1.08876,11.35346 -2.20428,11.79587 -8.00186,22.72695 -16.62991,31.355 -6.02978,6.02978 -12.96951,10.55474 -20.99878,13.692 -4.14894,1.62111 -7.86286,2.56227 -14.46282,3.66509 -2.05717,0.34374 -9.60687,0.507 -12.095727,0.26156 z m 10.475787,-8.06755 c 11.90511,-1.29681 23.05653,-6.64148 31.52385,-15.1088 9.91565,-9.91565 15.35899,-23.08214 15.35899,-37.15076 0,-14.06861 -5.44334,-27.2351 -15.35899,-37.150757 -9.91566,-9.915655 -23.08215,-15.35899 -37.15076,-15.35899 -14.068618,0 -27.235109,5.443335 -37.150765,15.35899 -9.915655,9.915657 -15.35899,23.082147 -15.35899,37.150757 0,14.06862 5.443335,27.23511 15.35899,37.15076 8.356942,8.35695 19.596392,13.78936 31.237501,15.09817 2.602574,0.29261 8.898284,0.29841 11.540174,0.0106 z M 79.272387,131.71535 c -1.903067,-0.68294 -2.980877,-2.56128 -2.60854,-4.54601 0.211453,-1.12714 1.605083,-2.53616 2.850404,-2.88189 0.618466,-0.1717 4.403229,-0.26164 11.046919,-0.2625 l 10.10613,-0.001 0.0647,-18.62677 c 0.0732,-21.078358 -0.0424,-19.832888 1.94934,-21.000143 1.9433,-1.138843 4.52163,-0.442807 5.47613,1.478315 0.42297,0.851301 0.44821,1.877905 0.51633,21.000138 0.0394,11.0578 0.006,20.65852 -0.0747,21.33494 -0.17322,1.45631 -0.8684,2.58182 -2.00827,3.25144 -0.80345,0.47198 -1.19165,0.48738 -13.599699,0.53958 -10.601404,0.0446 -12.933476,-0.004 -13.718764,-0.28578 z"
         id="path5125"
         inkscape:connector-curvature="0" />
      <path
         style="fill:#474846;stroke-width:0.23653041"
         d="m 100.20533,188.36278 c -23.124137,-2.02441 -42.754352,-16.36279 -51.439927,-37.57294 -3.344004,-8.16605 -5.045909,-18.20851 -4.425857,-26.11575 0.843208,-10.75304 3.703483,-19.7806 8.96715,-28.30198 9.363936,-15.159332 24.489443,-25.168306 42.404554,-28.060288 8.74834,-1.412218 17.42202,-0.773975 26.49141,1.94934 19.19254,5.763053 34.51717,21.087683 40.28023,40.280228 2.72331,9.06939 3.36156,17.74307 1.94934,26.49141 -3.43291,21.26604 -17.04111,38.65127 -36.63821,46.80737 -8.61002,3.58339 -18.95184,5.27872 -27.58869,4.52261 z m 10.43784,-8.06002 c 8.04194,-0.85357 16.53859,-3.95921 23.28283,-8.51018 12.86871,-8.68371 21.14763,-22.22035 23.04539,-37.68091 0.33066,-2.6938 0.33066,-9.44025 0,-12.13405 -2.55898,-20.84728 -16.79353,-37.981707 -36.69893,-44.175253 -5.23951,-1.630267 -9.70976,-2.286652 -15.57305,-2.286652 -5.863295,0 -10.333549,0.656385 -15.573055,2.286652 -19.905401,6.193546 -34.139958,23.327973 -36.698932,44.175253 -0.33066,2.6938 -0.33066,9.44025 0,12.13405 2.092411,17.04632 11.958722,31.72497 26.900743,40.02171 9.386792,5.21213 20.222034,7.34678 31.315004,6.16938 z M 78.779266,131.49595 c -1.545499,-0.67932 -2.510203,-2.75592 -2.027988,-4.3654 0.150627,-0.50275 0.504664,-1.2075 0.786745,-1.56611 1.010271,-1.28436 1.199006,-1.30428 12.35374,-1.30428 9.029877,0 10.324967,-0.0452 10.651467,-0.37169 0.33157,-0.33157 0.37169,-2.37032 0.37169,-18.88746 V 86.485249 l 0.53219,-0.781954 c 0.91411,-1.343094 1.70072,-1.771572 3.2523,-1.771572 1.55158,0 2.33819,0.428478 3.25229,1.771572 l 0.53219,0.781954 v 21.276141 c 0,23.53059 0.0799,22.28968 -1.50747,23.42194 l -0.73957,0.52754 -13.363965,0.0529 c -10.820507,0.0428 -13.502837,-0.008 -14.093619,-0.26781 z"
         id="path5123"
         inkscape:connector-curvature="0" />
      <path
         style="fill:#40413f;stroke-width:0.23653041"
         d="m 100.44186,188.35467 c -8.359651,-0.66602 -17.727336,-3.48205 -24.95396,-7.50142 -11.583893,-6.44283 -21.138425,-16.98757 -26.203398,-28.91903 -3.692619,-8.69864 -5.550199,-18.91749 -4.933841,-27.14187 1.45665,-19.4368 10.878087,-36.026752 26.524896,-46.706972 8.817681,-6.018786 19.155896,-9.531991 30.571553,-10.389043 10.15898,-0.762705 22.82583,2.179164 32.4638,7.539699 11.5839,6.442838 21.13843,16.987572 26.2034,28.919036 3.69262,8.69864 5.5502,18.91749 4.93384,27.14187 -1.45665,19.4368 -10.87809,36.02675 -26.5249,46.70697 -10.95108,7.475 -25.28274,11.37044 -38.08139,10.35076 z m 11.70825,-8.19305 c 11.53871,-1.6264 22.17455,-7.08615 30.39416,-15.6024 7.85222,-8.1356 12.6618,-17.97437 14.32321,-29.3004 0.56326,-3.83987 0.56326,-10.58849 0,-14.42835 -1.66141,-11.32603 -6.47099,-21.164804 -14.32321,-29.3004 -8.27965,-8.578457 -18.69925,-13.903287 -30.63069,-15.653498 -3.83986,-0.563266 -10.58848,-0.563266 -14.428352,0 -11.931433,1.750211 -22.351035,7.075041 -30.630688,15.653498 -7.852215,8.135596 -12.661802,17.97437 -14.323206,29.3004 -0.563266,3.83986 -0.563266,10.58848 0,14.42835 1.661404,11.32603 6.470991,21.1648 14.323206,29.3004 11.831192,12.25816 28.437983,17.9785 45.29557,15.6024 z M 78.684983,131.39121 c -1.018318,-0.54613 -1.633461,-1.35392 -1.886957,-2.47788 -0.386595,-1.71411 0.36849,-3.40089 1.886957,-4.21525 0.759388,-0.40726 1.547526,-0.43792 11.257752,-0.43792 8.403093,0 10.492195,-0.0614 10.702465,-0.31481 0.18462,-0.22245 0.27986,-5.80382 0.32463,-19.02345 0.0625,-18.46144 0.0698,-18.717464 0.55026,-19.376349 0.57239,-0.784928 2.31094,-1.732094 3.17932,-1.732094 0.86838,0 2.60693,0.947173 3.17931,1.732116 0.48191,0.660874 0.48755,0.888085 0.54969,22.134327 l 0.0628,21.46659 -0.54148,0.8035 c -0.29781,0.44192 -0.9006,1.04552 -1.33955,1.34132 l -0.79807,0.53782 H 92.65682 c -12.35172,0 -13.20516,-0.0267 -13.971837,-0.43792 z"
         id="path5121"
         inkscape:connector-curvature="0" />
      <path
         style="fill:#3e403d;stroke-width:0.23653041"
         d="m 100.67839,188.35215 c -11.850373,-0.95896 -23.015585,-5.18312 -32.572015,-12.32305 -2.978855,-2.2256 -9.165827,-8.41257 -11.391428,-11.39143 -7.39973,-9.90416 -11.362434,-20.63514 -12.35565,-33.459 -0.715457,-9.23759 1.771033,-20.89647 6.432393,-30.16079 3.111295,-6.18361 6.208563,-10.437269 11.326123,-15.554829 5.11756,-5.11756 9.371219,-8.214828 15.554829,-11.326123 9.264317,-4.66136 20.923198,-7.14785 30.160788,-6.432393 12.82387,0.993216 23.55484,4.95592 33.45901,12.35565 2.97885,2.225601 9.16582,8.412573 11.39142,11.391428 7.39974,9.904167 11.36244,20.635137 12.35566,33.459007 0.71545,9.23759 -1.77104,20.89647 -6.4324,30.16079 -3.11129,6.18361 -6.20856,10.43727 -11.32612,15.55483 -5.17598,5.17597 -9.40431,8.24192 -15.73636,11.41036 -9.53495,4.77112 -20.98938,7.11481 -30.86625,6.31555 z m 11.49654,-8.16224 c 11.18125,-1.65759 21.11249,-6.56328 29.15409,-14.4011 8.54541,-8.32887 13.66129,-18.32276 15.55508,-30.38691 0.53996,-3.43972 0.53996,-11.27479 0,-14.71451 -0.92287,-5.87906 -2.4741,-10.84472 -4.97984,-15.94099 -5.14384,-10.461782 -13.99883,-19.207389 -24.54635,-24.243149 -7.29059,-3.480787 -14.29127,-5.037061 -22.6585,-5.037061 -5.312638,0 -7.850952,0.295275 -12.679193,1.474936 -15.080086,3.684443 -28.120596,14.324548 -34.862204,28.445014 -3.480787,7.29059 -5.037061,14.29127 -5.037061,22.6585 0,8.36723 1.556274,15.36792 5.037061,22.65851 3.225852,6.75663 8.564377,13.54284 14.30887,18.1891 8.147286,6.58969 18.307483,10.73584 28.547177,11.64946 3.11178,0.27765 9.07949,0.10501 12.16087,-0.3518 z M 78.645063,131.35498 c -1.221251,-0.64966 -1.856245,-1.78207 -1.856245,-3.31034 0,-1.55287 0.64463,-2.67494 1.906655,-3.31878 0.866966,-0.44229 1.434216,-0.4657 11.282318,-0.4657 7.749758,0 10.441159,-0.0717 10.653289,-0.28384 0.21592,-0.21591 0.28384,-4.70252 0.28384,-18.74872 0,-17.517207 0.0225,-18.507192 0.43796,-19.289059 1.30145,-2.449093 4.68617,-2.728637 6.36636,-0.525798 l 0.64639,0.84746 v 21.584467 c 0,21.43119 -0.003,21.58911 -0.48768,22.23766 -0.26822,0.35925 -0.78153,0.87264 -1.14069,1.14086 -0.63938,0.47749 -0.93045,0.48876 -13.940679,0.5395 -12.757339,0.0498 -13.32214,0.0335 -14.151518,-0.40771 z"
         id="path5119"
         inkscape:connector-curvature="0" />
      <path
         style="fill:#363835;stroke-width:0.23653041"
         d="m 100.67839,188.35467 c -4.020226,-0.3203 -9.607299,-1.40013 -13.598264,-2.62819 -9.577545,-2.94709 -17.780838,-7.9061 -24.968648,-15.09391 -10.649347,-10.64934 -16.553935,-23.77016 -17.754924,-39.4539 -0.574301,-7.49982 1.09787,-17.36767 4.308825,-25.42732 3.070577,-7.707303 7.413146,-14.261681 13.446099,-20.294634 10.649345,-10.649347 23.77016,-16.553935 39.453902,-17.754924 7.49982,-0.574301 17.36767,1.09787 25.42732,4.308825 7.7073,3.070577 14.26168,7.413146 20.29464,13.446099 10.64934,10.649345 16.55393,23.770164 17.75492,39.453904 0.83509,10.90548 -2.62267,24.30682 -8.95596,34.71083 -4.60476,7.56446 -12.24562,15.20533 -19.81008,19.81009 -10.71909,6.52508 -23.97879,9.84883 -35.59783,8.92313 z m 11.58999,-8.16394 c 5.58462,-0.83853 10.42481,-2.3458 15.49274,-4.82453 5.4937,-2.68699 9.4808,-5.5245 13.91567,-9.90343 4.51672,-4.45975 7.58135,-8.71351 10.34311,-14.35641 3.69277,-7.54517 5.28573,-14.49528 5.28573,-23.06172 0,-8.56643 -1.59296,-15.51654 -5.28573,-23.06171 -2.76176,-5.642905 -5.82639,-9.896663 -10.34311,-14.356409 -4.43487,-4.37893 -8.42197,-7.216448 -13.91567,-9.903427 -7.55009,-3.692766 -14.49699,-5.284672 -23.06171,-5.284672 -8.564732,0 -15.511633,1.591906 -23.061719,5.284672 -5.493696,2.686979 -9.480794,5.524497 -13.915668,9.903427 -4.516724,4.459746 -7.581355,8.713504 -10.343112,14.356409 -3.692767,7.54517 -5.285727,14.49528 -5.285727,23.06171 0,8.56644 1.59296,15.51655 5.285727,23.06172 2.761757,5.6429 5.826388,9.89666 10.343112,14.35641 4.3938,4.33837 8.364444,7.17364 13.844759,9.88597 5.894581,2.91735 11.697207,4.49711 19.466398,5.29971 1.85487,0.19161 8.79322,-0.091 11.2352,-0.45772 z M 78.69482,131.29674 c -1.247336,-0.65961 -1.906002,-1.78345 -1.906002,-3.2521 0,-1.4637 0.659115,-2.59272 1.895228,-3.24639 1.013675,-0.53605 1.056841,-0.53809 11.358715,-0.53809 8.319827,0 10.392239,-0.0615 10.602439,-0.31481 0.1846,-0.22243 0.27986,-5.79251 0.32463,-18.98157 l 0.0633,-18.666753 0.55085,-0.772293 c 0.72576,-1.017542 1.80637,-1.557928 3.11538,-1.557928 1.309,0 2.38961,0.540386 3.11538,1.557928 l 0.55084,0.772293 v 21.566053 c 0,21.4126 -0.003,21.5707 -0.48768,22.21925 -0.26822,0.35925 -0.78153,0.87264 -1.14069,1.14086 -0.63869,0.47698 -0.94198,0.4891 -13.833566,0.55251 l -13.180558,0.0648 z"
         id="path5117"
         inkscape:connector-curvature="0" />
      <path
         style="fill:#262825;stroke-width:0.23653041"
         d="m 101.03318,188.356 c -15.096412,-1.25527 -28.599039,-7.40488 -38.919643,-17.72549 -9.23865,-9.23865 -14.934069,-20.53201 -17.058496,-33.82505 -1.027388,-6.4286 -1.027388,-11.09303 0,-17.52163 2.124427,-13.29304 7.819846,-24.586405 17.058496,-33.825055 9.23865,-9.23865 20.532017,-14.934069 33.825055,-17.058496 6.428598,-1.027388 11.093028,-1.027388 17.521628,0 13.29304,2.124427 24.5864,7.819846 33.82506,17.058496 9.23865,9.23865 14.93406,20.532015 17.05849,33.825055 1.02739,6.4286 1.02739,11.09303 0,17.52163 -2.12443,13.29304 -7.81984,24.5864 -17.05849,33.82505 -4.05255,4.05255 -8.18807,7.191 -13.33635,10.12097 -5.87506,3.34359 -15.09704,6.36946 -21.44402,7.0361 -0.8456,0.0888 -1.69711,0.24094 -1.89224,0.33806 -0.54281,0.27015 -7.18114,0.42978 -9.57949,0.23036 z m 8.66744,-7.80801 c 12.33904,-1.22375 23.52713,-6.51008 32.25959,-15.24254 20.63621,-20.63621 20.63621,-53.8854 0,-74.521609 -20.63621,-20.63621 -53.885398,-20.63621 -74.521607,0 -20.63621,20.636209 -20.63621,53.885399 0,74.521609 11.157792,11.15779 26.749091,16.78107 42.262017,15.24254 z M 79.300605,131.58446 c -0.374754,-0.11221 -0.943671,-0.44899 -1.264257,-0.7484 -1.854609,-1.73209 -1.638818,-4.38888 0.484317,-5.96283 0.648465,-0.48072 0.974969,-0.49817 11.471725,-0.61307 l 10.80426,-0.11827 0.11827,-18.80417 0.11826,-18.804163 0.51586,-0.827856 c 0.71845,-1.152974 1.67762,-1.655713 3.15894,-1.655713 1.58256,0 2.6363,0.633588 3.28607,1.975841 0.48406,0.999928 0.48984,1.257673 0.48984,21.820021 V 128.654 l -0.53219,1.05537 c -0.38878,0.77098 -0.81658,1.19878 -1.58757,1.58757 l -1.05537,0.53219 -12.663391,-0.0203 c -6.964865,-0.0112 -12.970008,-0.11214 -13.344764,-0.22434 z"
         id="path5115"
         inkscape:connector-curvature="0" />
      <path
         style="fill:#20211f;stroke-width:0.23653041"
         d="m 101.32885,188.42032 c -1.2684,-0.0427 -2.306174,-0.16638 -2.306174,-0.27495 0,-0.10858 -0.77168,-0.27275 -1.714845,-0.36482 -4.024433,-0.3929 -9.991104,-1.8813 -14.316162,-3.57122 -19.353332,-7.56188 -33.407248,-24.35983 -37.392124,-44.69296 -0.254953,-1.30092 -0.540415,-3.11038 -0.63436,-4.02102 -0.09395,-0.91064 -0.275057,-1.72259 -0.402471,-1.80434 -0.311726,-0.20001 -0.311726,-11.09272 0,-11.29273 0.127414,-0.0817 0.308525,-0.8937 0.402471,-1.80434 0.420849,-4.07943 1.897809,-9.97853 3.569535,-14.25703 7.561876,-19.353335 24.359828,-33.407251 44.692961,-37.392127 1.300917,-0.254953 3.110375,-0.540415 4.021017,-0.63436 0.910642,-0.09395 1.722597,-0.275057 1.804346,-0.402471 0.200003,-0.311726 11.092716,-0.311726 11.292726,0 0.0817,0.127414 0.8937,0.308525 1.80434,0.402471 0.91065,0.09395 2.7201,0.379407 4.02102,0.63436 20.33313,3.984876 37.13109,18.038792 44.69296,37.392127 1.67173,4.2785 3.14869,10.1776 3.56954,14.25703 0.0939,0.91064 0.27505,1.72259 0.40247,1.80434 0.31172,0.20001 0.31172,11.09272 0,11.29273 -0.12742,0.0817 -0.30853,0.8937 -0.40247,1.80434 -0.094,0.91064 -0.37941,2.7201 -0.63436,4.02102 -3.98488,20.33313 -18.0388,37.13108 -37.39213,44.69296 -4.2785,1.67173 -10.1776,3.14869 -14.25703,3.56954 -0.91064,0.0939 -1.70893,0.24707 -1.77397,0.34028 -0.14763,0.21156 -5.95917,0.40501 -9.04729,0.30117 z m 8.84483,-7.87718 c 24.64054,-2.49262 44.5316,-22.38368 47.02422,-47.02422 C 159.78697,107.92485 143.78177,84.328137 119.0095,77.217146 111.46077,75.05025 102.25903,74.69517 94.410333,76.267904 71.755337,80.807544 54.512152,99.7228 52.200914,122.57037 c -2.749326,27.17825 15.448612,51.85014 42.234756,57.25986 4.5779,0.92456 10.84114,1.20827 15.73801,0.71291 z M 79.272387,131.4779 c -3.035293,-1.08612 -3.345089,-5.13969 -0.511308,-6.69028 0.667718,-0.36536 1.888161,-0.42187 11.391707,-0.52746 l 10.643864,-0.11827 0.11827,-18.6859 c 0.0841,-13.292373 0.19636,-18.856584 0.38883,-19.277229 0.58032,-1.268288 1.9529,-2.128773 3.39566,-2.128773 1.80696,0 3.1623,1.118725 3.5535,2.93314 0.18109,0.839886 0.23769,7.418966 0.18639,21.666022 -0.0719,19.97228 -0.085,20.47859 -0.54673,21.24494 -0.26019,0.43179 -0.8456,1.0172 -1.30092,1.30092 -0.82121,0.51171 -0.93046,0.51628 -13.600499,0.56865 -10.581794,0.0437 -12.934928,-0.005 -13.718764,-0.28576 z"
         id="path5113"
         inkscape:connector-curvature="0" />
      <path
         style="fill:#1e201d;stroke-width:0.23653041"
         d="m 101.43833,188.43332 c -1.480479,-0.0549 -2.37801,-0.1795 -2.292216,-0.31832 0.0793,-0.12831 -0.18916,-0.22816 -0.613446,-0.22816 -1.275143,0 -5.400148,-0.70984 -8.261617,-1.42167 -7.882033,-1.96077 -15.334579,-5.51204 -21.976513,-10.47219 -2.918788,-2.17973 -9.363741,-8.62468 -11.543471,-11.54347 -4.96015,-6.64193 -8.511416,-14.09448 -10.472187,-21.97651 -0.711832,-2.86147 -1.421668,-6.98648 -1.421668,-8.26162 0,-0.41495 -0.09338,-0.69674 -0.207519,-0.6262 -0.263065,0.16258 -0.440892,-4.66375 -0.308575,-8.37493 0.05558,-1.55892 0.19444,-2.77668 0.308575,-2.70614 0.114136,0.0705 0.207519,-0.21125 0.207519,-0.6262 0,-1.27515 0.709836,-5.40015 1.421668,-8.26162 1.960771,-7.88203 5.512037,-15.33458 10.472187,-21.976514 2.17973,-2.918788 8.624683,-9.363741 11.543471,-11.543471 6.641934,-4.96015 14.09448,-8.511416 21.976513,-10.472187 2.861469,-0.711832 6.986474,-1.421668 8.261617,-1.421668 0.41495,0 0.696743,-0.09338 0.626205,-0.207519 -0.162584,-0.263065 4.663747,-0.440892 8.374927,-0.308575 1.55892,0.05558 2.77668,0.19444 2.70614,0.308575 -0.0705,0.114136 0.21125,0.207519 0.6262,0.207519 1.27515,0 5.40015,0.709836 8.26162,1.421668 7.88203,1.960771 15.33458,5.512037 21.97651,10.472187 2.91879,2.17973 9.36374,8.624683 11.54348,11.543471 4.96015,6.641934 8.51141,14.094484 10.47218,21.976514 0.71183,2.86147 1.42167,6.98647 1.42167,8.26162 0,0.41495 0.0934,0.69674 0.20752,0.6262 0.11413,-0.0705 0.25299,1.14722 0.30857,2.70614 0.13232,3.71118 -0.0455,8.53751 -0.30857,8.37493 -0.11414,-0.0705 -0.20752,0.21125 -0.20752,0.6262 0,1.27514 -0.70984,5.40015 -1.42167,8.26162 -1.96077,7.88203 -5.51203,15.33458 -10.47218,21.97651 -2.17974,2.91879 -8.62469,9.36374 -11.54348,11.54347 -6.64193,4.96015 -14.09448,8.51142 -21.97651,10.47219 -2.86147,0.71183 -6.98647,1.42167 -8.26162,1.42167 -0.44274,0 -0.69405,0.0977 -0.60827,0.23653 0.0928,0.15007 -0.53788,0.23653 -1.72532,0.23653 -1.02933,0 -2.49914,0.0368 -3.26625,0.0818 -0.76711,0.045 -2.4897,0.0412 -3.82797,-0.008 z m 8.88799,-7.89182 c 6.17568,-0.67064 11.85927,-2.31925 17.4348,-5.05723 5.90018,-2.89739 9.54292,-5.50482 14.20801,-10.16991 4.66508,-4.66508 7.27251,-8.30782 10.16991,-14.208 3.61161,-7.3546 5.30665,-14.72091 5.30665,-23.06172 0,-8.3408 -1.69504,-15.70711 -5.30665,-23.06171 -2.8974,-5.900181 -5.50483,-9.54292 -10.16991,-14.208007 -4.66509,-4.665087 -8.30783,-7.272514 -14.20801,-10.169908 -7.3546,-3.611615 -14.72091,-5.306652 -23.06171,-5.306652 -8.340807,0 -15.70712,1.695037 -23.061719,5.306652 -5.90018,2.897394 -9.542919,5.504821 -14.208006,10.169908 -4.665087,4.665087 -7.272514,8.307826 -10.169908,14.208007 -3.611615,7.3546 -5.306652,14.72091 -5.306652,23.06171 0,8.34081 1.695037,15.70712 5.306652,23.06172 2.897394,5.90018 5.504821,9.54292 10.169908,14.208 4.665087,4.66509 8.307826,7.27252 14.208006,10.16991 5.413117,2.65822 11.22873,4.37631 17.03019,5.03118 2.699919,0.30477 8.962959,0.31877 11.658439,0.0261 z M 79.69224,131.59947 c -0.419539,-0.0997 -1.040481,-0.36317 -1.379871,-0.58555 -0.69008,-0.45216 -1.510422,-2.06128 -1.518357,-2.97829 -0.0085,-0.98574 0.983235,-2.65636 1.887049,-3.17873 0.788398,-0.45567 1.335186,-0.48411 11.471725,-0.59674 l 10.643864,-0.11827 0.11827,-18.6859 c 0.11486,-18.14838 0.13187,-18.709006 0.59133,-19.489034 0.78385,-1.330775 1.61454,-1.798703 3.19316,-1.798703 1.57861,0 2.4093,0.467928 3.19316,1.798703 0.46146,0.783446 0.47481,1.295915 0.54468,20.908214 0.0394,11.0578 0.003,20.67813 -0.0801,21.37851 -0.19197,1.61116 -1.37475,3.00952 -2.82988,3.34563 -1.12912,0.26081 -24.737351,0.26096 -25.83502,1.6e-4 z"
         id="path5111"
         inkscape:connector-curvature="0" />
      <path
         style="fill:#171916;stroke-width:0.23653041"
         d="m 101.50728,188.43281 c -1.34532,-0.052 -2.230431,-0.17416 -2.053723,-0.28337 0.184375,-0.11395 -0.470817,-0.2571 -1.612608,-0.35232 -2.665104,-0.22226 -7.208456,-1.15657 -10.553093,-2.17018 -19.234054,-5.82895 -34.341793,-20.93669 -40.170749,-40.17075 -1.013606,-3.34463 -1.947918,-7.88798 -2.17018,-10.55309 -0.08821,-1.05773 -0.237124,-1.79899 -0.330918,-1.64723 -0.09379,0.15176 -0.21779,-0.95868 -0.275549,-2.46765 -0.128848,-3.36619 0.04312,-8.33088 0.275549,-7.9548 0.09379,0.15176 0.242707,-0.5895 0.330918,-1.64723 0.222262,-2.66511 1.156574,-7.20846 2.17018,-10.5531 5.828956,-19.23405 20.936695,-34.341789 40.170749,-40.170745 3.344637,-1.013606 7.887989,-1.947918 10.553093,-2.17018 1.057736,-0.08821 1.798989,-0.237124 1.647228,-0.330918 -0.376071,-0.232424 4.588623,-0.404397 7.954803,-0.275549 1.50897,0.05776 2.61941,0.181756 2.46765,0.275549 -0.15176,0.09379 0.5895,0.242707 1.64723,0.330918 2.66511,0.222262 7.20846,1.156574 10.5531,2.17018 19.23405,5.828956 34.34179,20.936695 40.17075,40.170745 1.0136,3.34464 1.94791,7.88799 2.17017,10.5531 0.0882,1.05773 0.23713,1.79899 0.33092,1.64723 0.23243,-0.37608 0.4044,4.58861 0.27555,7.9548 -0.0578,1.50897 -0.18175,2.61941 -0.27555,2.46765 -0.0938,-0.15176 -0.2427,0.5895 -0.33092,1.64723 -0.22226,2.66511 -1.15657,7.20846 -2.17017,10.55309 -5.82896,19.23406 -20.9367,34.3418 -40.17075,40.17075 -3.34464,1.01361 -7.88799,1.94792 -10.5531,2.17018 -1.17499,0.098 -1.80194,0.23725 -1.61157,0.35796 0.18277,0.11589 -0.43193,0.19907 -1.48683,0.2012 -0.98913,0.002 -2.42605,0.0406 -3.19316,0.0858 -0.76711,0.0452 -2.45867,0.041 -3.75902,-0.009 z m 10.08894,-8.01886 c 8.88044,-1.14677 17.39541,-4.61814 24.79826,-10.10968 2.88715,-2.14173 8.42282,-7.67741 10.56455,-10.56455 6.99287,-9.42671 10.48666,-19.98639 10.48666,-31.69508 0,-11.70868 -3.49379,-22.26837 -10.48666,-31.695071 -2.14173,-2.887145 -7.6774,-8.422822 -10.56455,-10.56455 -9.4267,-6.99287 -19.98639,-10.486656 -31.69507,-10.486656 -11.708687,0 -22.268375,3.493786 -31.695079,10.486656 -2.887145,2.141728 -8.422822,7.677405 -10.56455,10.56455 -6.99287,9.426701 -10.486656,19.986391 -10.486656,31.695071 0,11.70869 3.493786,22.26837 10.486656,31.69508 2.141728,2.88714 7.677405,8.42282 10.56455,10.56455 7.277915,5.39887 15.847687,8.92927 24.49051,10.08912 3.574229,0.47965 10.468419,0.48971 14.101379,0.0206 z M 79.969676,131.61827 c -0.527131,-0.0898 -1.286706,-0.39705 -1.687942,-0.68276 -0.749142,-0.53343 -1.496942,-2.01865 -1.487722,-2.95479 0.01,-1.01359 0.862898,-2.45102 1.799987,-3.03355 l 0.914918,-0.56875 10.694907,-0.0743 10.694906,-0.0743 0.0672,-18.72988 c 0.0655,-18.241063 0.0796,-18.750853 0.54029,-19.533024 0.78385,-1.330775 1.61454,-1.798703 3.19316,-1.798703 1.57861,0 2.4093,0.467928 3.19316,1.798703 0.46121,0.783014 0.4749,1.297863 0.54668,20.553424 0.0405,10.86266 0.006,20.41176 -0.0771,21.22023 -0.17458,1.70306 -0.7882,2.76791 -2.00788,3.48441 -0.80342,0.47196 -1.1785,0.48686 -13.126629,0.52119 -6.76477,0.0195 -12.730871,-0.0381 -13.258005,-0.12794 z"
         id="path5109"
         inkscape:connector-curvature="0" />
      <path
         style="fill:#010300;stroke-width:0.23653041"
         d="m 101.74278,188.36768 c -1.70987,-0.0991 -2.196397,-0.17798 -1.41919,-0.23008 0.97596,-0.0654 0.79304,-0.11388 -1.046592,-0.27723 -22.572995,-2.00432 -42.289777,-16.85614 -50.602146,-38.11645 -1.858179,-4.75261 -3.328365,-11.06465 -3.791174,-16.27687 -0.16078,-1.81073 -0.211829,-2.00722 -0.271919,-1.04659 -0.04112,0.65735 -0.134362,-0.0518 -0.209925,-1.59658 -0.07477,-1.52858 -0.07477,-4.02989 0,-5.55847 0.07556,-1.54477 0.168806,-2.25393 0.209925,-1.59658 0.06009,0.96063 0.111139,0.76414 0.271919,-1.04659 2.551618,-28.736708 25.656616,-51.841706 54.39332,-54.393324 1.810732,-0.16078 2.007222,-0.211829 1.046592,-0.271919 -0.657348,-0.04112 0.0518,-0.134362 1.59658,-0.209925 1.52858,-0.07477 4.02989,-0.07477 5.55847,0 1.54477,0.07556 2.25393,0.168806 1.59658,0.209925 -0.96063,0.06009 -0.76414,0.111139 1.04659,0.271919 28.73671,2.551618 51.84171,25.656616 54.39332,54.393324 0.16078,1.81073 0.21183,2.00722 0.27192,1.04659 0.0411,-0.65735 0.13437,0.0518 0.20993,1.59658 0.0748,1.52858 0.0748,4.02989 0,5.55847 -0.0756,1.54477 -0.16881,2.25393 -0.20993,1.59658 -0.0601,-0.96063 -0.11114,-0.76414 -0.27192,1.04659 -2.38632,26.87508 -22.80295,49.07471 -49.40839,53.72324 -1.49605,0.26139 -3.73126,0.55071 -4.96713,0.64293 -2.05619,0.15344 -2.14659,0.17977 -1.06439,0.31002 0.93153,0.11211 0.69924,0.15023 -1.09395,0.1795 -1.25214,0.0204 -2.58262,0.0728 -2.95663,0.11645 -0.37402,0.0436 -1.85086,0.0114 -3.28186,-0.0715 z m 7.68723,-7.59021 c 20.86083,-1.90475 38.75797,-16.02879 45.39011,-35.8209 6.31987,-18.86022 1.76559,-39.20159 -12.00935,-53.638814 C 132.18702,80.183229 116.2848,74.077031 100.97405,75.253132 77.076772,77.088811 57.511073,94.300092 52.791934,117.63731 c -3.158729,15.62063 1.081569,32.15167 11.406198,44.46771 11.036222,13.16489 28.154815,20.23172 45.231878,18.67245 z M 78.922305,131.18145 c -2.532114,-1.28186 -2.532114,-4.99829 0,-6.27047 0.746443,-0.37502 1.795697,-0.41359 11.260653,-0.41393 8.399675,-2.3e-4 10.488522,-0.0618 10.698772,-0.31517 0.18462,-0.22245 0.27986,-5.80382 0.32463,-19.02345 0.0626,-18.476852 0.0694,-18.716733 0.55103,-19.361734 0.87605,-1.173196 1.61226,-1.564762 2.94202,-1.564762 1.32977,0 2.06598,0.391575 2.94201,1.564782 0.48292,0.646736 0.48829,0.859743 0.55055,21.820814 0.0696,23.44479 0.14786,22.18802 -1.45208,23.32927 l -0.73957,0.52753 -13.127435,0.0619 c -12.139913,0.0573 -13.189359,0.0306 -13.95058,-0.3548 z"
         id="path5107"
         inkscape:connector-curvature="0" />
    </g>
  </g>
</svg>
